<?xml version="1.0" encoding="UTF-8"?>
<svg xmlns="http://www.w3.org/2000/svg" xmlns:xlink="http://www.w3.org/1999/xlink" width="300.000mm" height="341.825mm" viewBox="49.000008 -369.912598 300.000000 341.825195">
    <path transform="matrix(1.154426,0,0,-1.154426,-4.620331,-402.111237)" style="stroke:#000000;stroke-width:0.05mm;fill:none" d="M175.330566,-28.39859C175.013062,-28.751373,174.871964,-33.125824,174.73085,-45.049713L174.554459,-61.20694L175.648071,-62.22998L176.741684,-63.28833L177.658905,-62.406372L178.576126,-61.559692L178.435013,-45.226105C178.329178,-29.527496,178.2939,-28.857208,177.658905,-28.363312C176.776962,-27.728302,175.895004,-27.728302,175.330566,-28.39859z"/>
    <path transform="matrix(1.154426,0,0,-1.154426,-4.620331,-402.111237)" style="stroke:#000000;stroke-width:0.05mm;fill:none" d="M167.74585,-31.891083C163.688904,-34.04303,72.037224,-86.218872,59.690002,-93.380264C55.17445,-96.026093,51.540836,-98.248596,51.646671,-98.319153C51.787781,-98.495544,64.840561,-93.521378,69.461952,-91.5811C72.248894,-90.381653,85.725006,-82.832214,140.405563,-51.928864L171.626404,-34.2547L171.732239,-32.420258C171.802795,-31.432495,171.69696,-30.444702,171.555847,-30.303589C171.379456,-30.127197,169.686127,-30.868042,167.74585,-31.891083z"/>
    <path transform="matrix(1.154426,0,0,-1.154426,-4.620331,-402.111237)" style="stroke:#000000;stroke-width:0.05mm;fill:none" d="M181.398346,-32.173309L181.504181,-34.360535L193.322235,-41.028046C278.729736,-89.18222,278.976685,-89.323334,286.455566,-92.427765C291.853088,-94.685547,300.249176,-97.789993,300.460846,-97.613602C300.637238,-97.401932,292.735016,-92.815826,260.350006,-74.436096C198.049454,-39.05249,181.998062,-29.986084,181.645294,-29.986084C181.433624,-29.986084,181.327789,-30.832764,181.398346,-32.173309z"/>
    <path transform="matrix(1.154426,0,0,-1.154426,-4.620331,-402.111237)" style="stroke:#000000;stroke-width:0.05mm;fill:none" d="M159.984726,-49.283051C147.214172,-52.175812,146.367508,-52.42276,145.732513,-53.869141C145.415009,-54.539429,145.485565,-54.821655,146.050003,-55.386108C146.931961,-56.268036,147.249451,-56.268036,151.518066,-55.244995C153.458344,-54.751099,155.081116,-54.433594,155.151672,-54.468872C155.186951,-54.539429,153.811127,-56.162201,152.011948,-58.0672C146.367508,-64.240814,144.109726,-68.474152,145.979462,-69.461914C146.367508,-69.673584,146.967239,-69.744141,147.284729,-69.638306C147.602234,-69.497192,149.048615,-67.839142,150.49501,-65.934143C153.070282,-62.547485,155.610291,-60.078033,160.161118,-56.656097C163.724182,-53.974976,164.747238,-52.881378,164.747238,-51.893585C164.71196,-49.847473,162.595291,-48.683319,159.984726,-49.283051z"/>
    <path transform="matrix(1.154426,0,0,-1.154426,-4.620331,-402.111237)" style="stroke:#000000;stroke-width:0.05mm;fill:none" d="M197.343903,-50.482483C195.932785,-50.870544,195.333069,-51.611359,195.615295,-52.528595C195.897507,-53.410553,196.215012,-53.516357,201.012787,-54.116089C204.716965,-54.574707,207.01001,-55.35083,207.327515,-56.268036C207.398071,-56.479706,206.128067,-56.903046,204.540573,-57.220551C202.741409,-57.608582,201.400848,-58.102478,200.94223,-58.561096L200.236679,-59.266663L200.977509,-60.007477C201.612518,-60.677765,202.423904,-60.818878,206.79834,-61.20694C210.608353,-61.524414,212.195847,-61.806641,213.289459,-62.371094C214.700577,-63.07666,216.605576,-64.981659,216.605576,-65.651917C216.605576,-66.322205,214.665298,-66.357483,209.72641,-65.828308C204.575851,-65.228607,203.482239,-65.334442,203.094177,-66.392761C202.529739,-68.015533,205.563629,-69.320831,211.560852,-70.026367C218.051956,-70.80249,218.757507,-70.731934,219.85112,-69.567749C221.332794,-68.015533,221.615021,-67.133606,221.368073,-65.193329C221.050568,-63.006104,220.27446,-62.088867,216.570297,-59.619415C214.806396,-58.455261,213.324738,-57.185272,212.901398,-56.479706C211.772507,-54.539429,209.902786,-52.916656,207.539185,-51.78775C204.434738,-50.306091,199.919174,-49.741638,197.343903,-50.482483z"/>
    <path transform="matrix(1.154426,0,0,-1.154426,-4.620331,-402.111237)" style="stroke:#000000;stroke-width:0.05mm;fill:none" d="M137.689178,-56.232758C135.184448,-57.044159,132.044724,-59.231384,131.198059,-60.7836C130.951126,-61.242218,131.056946,-61.665527,131.586121,-62.44165L132.362228,-63.499969L130.139725,-65.898865C126.2239,-70.16748,124.671677,-73.130829,125.800568,-74.259705C126.929451,-75.353333,128.622787,-74.330261,132.080002,-70.343872C134.761124,-67.274719,140.68779,-59.443054,141.463898,-57.996643C141.922516,-57.149994,141.922516,-57.008881,141.146393,-56.409149C140.193893,-55.633026,139.735291,-55.597748,137.689178,-56.232758z"/>
    <path transform="matrix(1.154426,0,0,-1.154426,-4.620331,-402.111237)" style="stroke:#000000;stroke-width:0.05mm;fill:none" d="M153.634735,-70.943604C142.592789,-74.048035,122.166946,-79.727753,108.302788,-83.608307C94.438614,-87.453583,80.680283,-91.334167,77.787506,-92.216095C70.590836,-94.40332,54.292503,-100.435822,53.445835,-101.282494C52.705002,-102.023323,56.091671,-101.529427,62.018337,-100.04776C71.86084,-97.543045,166.37001,-71.684418,168.451401,-70.908325C169.93306,-70.343872,175.083618,-65.158051,174.025284,-65.299164C173.884186,-65.334442,164.71196,-67.87442,153.634735,-70.943604z"/>
    <path transform="matrix(1.154426,0,0,-1.154426,-4.620331,-402.111237)" style="stroke:#000000;stroke-width:0.05mm;fill:none" d="M180.198898,-66.569153C180.410568,-66.921936,181.433624,-68.050812,182.45668,-69.038605L184.326401,-70.908325L210.608353,-78.140259C245.074738,-87.665253,288.88974,-99.589157,293.511139,-100.718048C297.25058,-101.599991,300.213898,-101.882202,300.213898,-101.282494C300.213898,-100.612213,284.233063,-94.685547,274.990295,-91.969147C265.041962,-89.041107,183.903061,-66.710266,181.045563,-66.145813C179.95195,-65.934143,179.881393,-65.969421,180.198898,-66.569153z"/>
    <path transform="matrix(1.154426,0,0,-1.154426,-4.620331,-402.111237)" style="stroke:#000000;stroke-width:0.05mm;fill:none" d="M178.152786,-71.402222L178.152786,-74.15387L189.230011,-94.156372C195.297791,-105.127762,208.632797,-129.18721,218.792786,-147.637497C228.988068,-166.05249,242.428909,-190.429443,248.708344,-201.788879C259.997253,-222.25,262.854736,-227.012497,263.630859,-226.73027C263.877808,-226.659714,264.089447,-225.601379,264.160004,-224.11972L264.265839,-221.61499L258.127502,-210.573044C254.740845,-204.470001,237.172516,-172.755264,219.075012,-140.052765C184.185287,-77.046661,180.975006,-71.331665,179.246399,-69.708862L178.152786,-68.650543L178.152786,-71.402222z"/>
    <path transform="matrix(1.154426,0,0,-1.154426,-4.620331,-402.111237)" style="stroke:#000000;stroke-width:0.05mm;fill:none" d="M173.778351,-70.238037C171.873352,-71.719696,169.368622,-76.02359,153.987503,-103.893044C145.309174,-119.626938,127.141121,-152.576385,113.559174,-177.129715L88.900009,-221.791382L88.900009,-224.33139C88.900009,-225.707214,89.041115,-226.836105,89.217506,-226.836105C90.416954,-226.836105,93.944725,-220.591949,146.720291,-125.165543C175.04834,-73.9422,175.330566,-73.413055,175.330566,-71.472748C175.330566,-70.37915,175.189453,-69.497192,175.013062,-69.497192C174.871964,-69.497192,174.30751,-69.814697,173.778351,-70.238037z"/>
    <path transform="matrix(1.154426,0,0,-1.154426,-4.620331,-402.111237)" style="stroke:#000000;stroke-width:0.05mm;fill:none" d="M51.505558,-104.386932C51.505558,-104.986649,52.881393,-114.194153,53.657505,-118.709717C54.468891,-123.472214,55.456669,-127.141098,63.71167,-155.927765C75.282784,-196.214996,83.29084,-223.414154,84.525558,-226.765549C85.407509,-229.093887,85.795563,-228.141388,85.971947,-223.414154L86.148338,-219.251389L83.502502,-210.255554C82.020836,-205.316666,74.89473,-180.692764,67.592224,-155.574997C54.045559,-108.796661,52.705002,-104.386932,51.964169,-104.139977C51.717224,-104.069427,51.505558,-104.175262,51.505558,-104.386932z"/>
    <path transform="matrix(1.154426,0,0,-1.154426,-4.620331,-402.111237)" style="stroke:#000000;stroke-width:0.05mm;fill:none" d="M300.390289,-104.492767C299.931702,-105.79805,291.747253,-134.020264,280.10556,-174.272217L267.017517,-219.604156L267.15863,-223.590546C267.335022,-227.823883,267.79364,-229.129166,268.463898,-227.329987C269.345856,-225.107498,274.602234,-207.221664,286.59668,-165.62915L299.085022,-122.202209L300.178619,-113.418053C300.778351,-108.549713,301.272247,-104.492767,301.272247,-104.316383C301.272247,-103.893044,300.566681,-104.034149,300.390289,-104.492767z"/>
    <path transform="matrix(1.154426,0,0,-1.154426,-4.620331,-402.111237)" style="stroke:#000000;stroke-width:0.05mm;fill:none" d="M304.376678,-104.422211C304.235565,-104.704437,303.635864,-108.902481,302.965576,-113.770828L301.801422,-122.590271L301.8367,-151.34166C301.871979,-191.593597,302.612793,-244.545563,303.141968,-245.074722C303.388916,-245.286377,304.200287,-245.709717,304.941132,-246.027222L306.316956,-246.59166L306.105286,-216.887772C305.505585,-139.064987,304.941132,-102.975807,304.376678,-104.422211z"/>
    <path transform="matrix(1.154426,0,0,-1.154426,-4.620331,-402.111237)" style="stroke:#000000;stroke-width:0.05mm;fill:none" d="M48.189449,-110.48999C48.083614,-113.065262,47.730835,-139.135544,47.448616,-168.451385C47.131115,-197.731934,46.743057,-227.118332,46.566669,-233.715271C46.42556,-240.312225,46.390282,-245.85083,46.566669,-245.991943C46.707783,-246.168335,47.625004,-245.886108,48.577503,-245.392212L50.341393,-244.510284L50.553059,-227.823883C50.694172,-218.651657,50.976391,-191.699432,51.188061,-167.922211L51.611393,-124.70694L50.129726,-115.358322C49.318336,-110.243042,48.612782,-105.974426,48.542225,-105.90387C48.471668,-105.833313,48.29528,-107.914703,48.189449,-110.48999z"/>
    <path transform="matrix(1.154426,0,0,-1.154426,-4.620331,-402.111237)" style="stroke:#000000;stroke-width:0.05mm;fill:none" d="M252.412521,-109.219994C251.918625,-109.749161,251.530579,-110.419434,251.530579,-110.772217C251.530579,-111.583603,252.835846,-112.712486,254.811401,-113.559158C255.728622,-113.947197,256.469452,-114.405823,256.469452,-114.582207C256.469452,-115.111366,245.321686,-121.46138,237.525299,-125.377213L232.868622,-127.705551L231.175293,-125.271378C230.258072,-123.930817,229.058624,-122.554993,228.494186,-122.237488C227.506409,-121.637772,227.435852,-121.637772,226.518631,-122.308037C225.248627,-123.295822,225.213348,-124.424713,226.448074,-127.176376C228.070847,-130.739441,232.339462,-137.724426,233.8564,-139.347214C235.40863,-140.969986,236.255295,-141.111099,237.384186,-139.911652C238.301407,-138.923874,238.266129,-138.359436,236.996124,-135.184433C236.255295,-133.314713,236.255295,-133.279434,236.925568,-132.64444C237.278351,-132.291656,242.993347,-128.904984,249.590302,-125.130257C263.666138,-117.122208,264.265839,-116.76944,265.253632,-115.499443C266.770569,-113.559158,266.065033,-112.218597,262.57251,-110.454712C259.85614,-109.078873,257.069183,-108.302757,254.987793,-108.302757C253.576691,-108.302757,253.118073,-108.479156,252.412521,-109.219994z"/>
    <path transform="matrix(1.154426,0,0,-1.154426,-4.620331,-402.111237)" style="stroke:#000000;stroke-width:0.05mm;fill:none" d="M86.748062,-111.548317C86.430565,-111.795273,85.760284,-112.712486,85.195839,-113.594437C83.749451,-115.887482,78.140282,-127.211647,77.399452,-129.363602L76.76445,-131.198044L77.611115,-132.115265C79.58667,-134.231934,81.174171,-132.679718,85.583893,-124.07193C87.453613,-120.403053,89.111671,-117.545547,89.252785,-117.721939C89.393898,-117.863037,90.487503,-119.344711,91.722229,-121.002762C97.29612,-128.481659,102.164452,-133.949707,107.420837,-138.676941C112.042229,-142.839706,113.806122,-143.862762,115.217232,-143.157211C117.721947,-141.922485,117.263344,-140.476105,113.347511,-137.195267C106.574173,-131.550827,103.328621,-127.952477,96.484726,-118.568604C94.226952,-115.499443,92.039726,-112.641937,91.616394,-112.253883C90.628616,-111.336647,87.559448,-110.913307,86.748062,-111.548317z"/>
    <path transform="matrix(1.154426,0,0,-1.154426,-4.620331,-402.111237)" style="stroke:#000000;stroke-width:0.05mm;fill:none" d="M264.830292,-129.293045C259.715027,-131.162766,256.50473,-136.91304,257.492523,-142.345825C257.704193,-143.474716,257.880585,-144.462494,257.880585,-144.533051C257.880585,-144.744705,262.36084,-144.638885,262.57251,-144.427216C262.678345,-144.321381,262.466675,-143.40416,262.078644,-142.45166C261.231964,-140.299713,261.549469,-138.959152,263.278076,-136.983597C267.15863,-132.538605,274.425842,-134.337769,273.614471,-139.488327C273.120575,-142.486938,271.14502,-144.321381,266.311951,-146.261658C261.761139,-148.060822,258.374451,-148.554718,249.131683,-148.766373L240.523911,-148.978043L240.206406,-149.895264C239.712509,-151.165268,240.312241,-152.329437,241.864456,-152.964432C243.910568,-153.811096,250.331131,-154.234436,255.552246,-153.811096C267.3703,-152.858597,274.955017,-149.507217,277.318634,-144.180267C277.953644,-142.698593,278.130005,-141.675552,278.130005,-138.994431C278.165283,-135.925262,278.094727,-135.501938,277.106964,-133.738037C275.836975,-131.409714,274.108337,-129.963318,271.850586,-129.293045C269.698639,-128.658051,266.594177,-128.658051,264.830292,-129.293045z"/>
    <path transform="matrix(1.154426,0,0,-1.154426,-4.620331,-402.111237)" style="stroke:#000000;stroke-width:0.05mm;fill:none" d="M177.835297,-151.764984C174.483902,-153.387772,169.368622,-159.526108,169.93306,-161.184158C170.568069,-162.948044,171.873352,-163.053879,174.589737,-161.57222C175.648071,-160.972488,176.635849,-160.513885,176.812241,-160.513885C177.165009,-160.513885,177.165009,-166.758041,176.847519,-178.540833L176.635849,-187.25444L173.672516,-187.395554C171.450012,-187.501389,170.497513,-187.713043,169.756683,-188.277496C168.557236,-189.194717,168.345566,-190.5,169.333344,-191.381943C170.003616,-191.981659,170.815018,-192.087494,176.565292,-192.193329C185.243622,-192.404999,188.242233,-192.122772,188.947784,-191.02916C189.653351,-189.935547,189.265289,-188.41861,188.136398,-187.99527C187.677795,-187.818878,186.196121,-187.57193,184.820297,-187.46611L182.386124,-187.219162L182.386124,-170.709152C182.386124,-161.642761,182.24501,-153.846375,182.068619,-153.387772C181.645294,-152.364716,180.37529,-150.988876,179.810852,-150.988876C179.563904,-151.024155,178.681961,-151.376938,177.835297,-151.764984z"/>
    <path transform="matrix(1.154426,0,0,-1.154426,-4.620331,-402.111237)" style="stroke:#000000;stroke-width:0.05mm;fill:none" d="M59.972225,-179.31694C58.843338,-179.881378,57.573338,-181.786377,57.291115,-183.338608C57.150005,-184.044159,57.361671,-186.372498,57.749725,-188.841934C58.420006,-192.934158,58.45528,-194.380554,57.85556,-194.380554C57.679169,-194.380554,57.150005,-193.11055,56.620838,-191.558319C56.056393,-189.86499,55.421394,-188.594986,55.033337,-188.383331C54.010281,-187.854156,53.869171,-188.947769,54.504169,-192.122772C55.17445,-195.40361,56.515003,-198.578598,57.714447,-199.707489L58.561115,-200.483612L59.936947,-198.96666C60.67778,-198.155273,61.665558,-196.673599,62.124172,-195.7211L62.935558,-193.957214L61.983059,-190.182495C60.995281,-186.301941,60.818893,-184.326385,61.348061,-183.479721C61.841949,-182.738876,62.441669,-183.373886,64.205559,-186.266663C65.616669,-188.665543,66.710281,-189.688599,67.380562,-189.265274C67.592224,-189.159439,67.733337,-188.030548,67.733337,-186.760544C67.733337,-184.149994,67.027779,-182.491943,65.193336,-180.728043C63.323616,-178.964157,61.630283,-178.470276,59.972225,-179.31694z"/>
    <path transform="matrix(1.154426,0,0,-1.154426,-4.620331,-402.111237)" style="stroke:#000000;stroke-width:0.05mm;fill:none" d="M282.575012,-192.228607C282.151672,-193.075272,282.116394,-200.942215,282.539734,-207.080551C282.857239,-211.772491,283.703918,-214.62999,285.573639,-217.34639C286.843628,-219.110275,289.030853,-220.274445,291.218079,-220.274445C295.275024,-220.274445,297.568085,-217.558044,297.991394,-212.160553C298.273621,-208.385834,297.532806,-206.128052,295.416138,-204.08194C294.075562,-202.776657,291.923645,-201.788879,290.371399,-201.788879C289.52475,-201.788879,288.925018,-202.953049,288.925018,-204.611099L288.925018,-206.304443L290.336121,-206.128052C291.535583,-205.95166,291.853088,-206.092773,292.770294,-206.974716C294.922241,-209.161942,294.922241,-213.46582,292.770294,-215.617767C291.676697,-216.746658,290.830017,-216.852493,289.701141,-216.041107C287.690308,-214.665268,286.631958,-210.749435,286.102783,-203.023605C285.538361,-194.027771,285.361969,-192.616653,284.797516,-192.087494C284.091949,-191.346664,283.03363,-191.417221,282.575012,-192.228607z"/>
    <path transform="matrix(1.154426,0,0,-1.154426,-4.620331,-402.111237)" style="stroke:#000000;stroke-width:0.05mm;fill:none" d="M65.475563,-197.061661C64.840561,-197.696655,64.805283,-197.908325,64.875839,-199.883881C64.946396,-201.04805,64.346672,-202.600266,61.700836,-208.174164C58.208336,-215.511932,57.890839,-216.817215,59.196114,-218.122498C59.901672,-218.79277,60.360283,-218.898605,62.935558,-218.898605C65.33445,-218.898605,66.040001,-218.757492,66.639725,-218.228333C68.121391,-216.887772,67.380562,-215.476654,65.016953,-215.194443C63.57056,-215.053329,63.323616,-214.912216,63.429447,-214.3125C63.605839,-213.501099,65.969452,-208.491653,67.027779,-206.798325C67.733337,-205.669434,67.733337,-205.669434,68.82695,-206.198608C69.991119,-206.833603,71.084724,-206.621933,71.578613,-205.73999C72.213615,-204.505264,70.23806,-200.377777,67.803894,-197.80249C66.357506,-196.320831,66.251671,-196.285553,65.475563,-197.061661z"/>
    <path transform="matrix(1.154426,0,0,-1.154426,-4.620331,-402.111237)" style="stroke:#000000;stroke-width:0.05mm;fill:none" d="M135.643066,-227.89444C100.964996,-228.10611,93.415565,-228.211945,92.251396,-228.635284C91.475281,-228.917496,90.840286,-229.270264,90.840286,-229.481934C90.840286,-229.658325,91.863342,-230.1875,93.133339,-230.61084L95.426392,-231.386932L176.565292,-231.386932L257.704193,-231.422211L260.350006,-230.61084L262.960571,-229.799438L261.126129,-228.670547L259.291687,-227.541656L218.440018,-227.612213C196.003342,-227.647491,158.750015,-227.788605,135.643066,-227.89444z"/>
    <path transform="matrix(1.154426,0,0,-1.154426,-4.620331,-402.111237)" style="stroke:#000000;stroke-width:0.05mm;fill:none" d="M269.875031,-230.893051C269.628082,-231.175262,269.522247,-231.669159,269.663361,-231.951385C269.945587,-232.727493,274.284729,-235.443878,286.631958,-242.60527C292.664459,-246.097778,299.226135,-249.943054,301.236969,-251.107208C304.623627,-253.082764,304.97641,-253.223877,305.364471,-252.659439C306.422791,-251.2836,305.999451,-250.542786,302.965576,-248.56723C295.098633,-243.487213,271.815308,-230.363892,270.615845,-230.363892C270.474731,-230.363892,270.121948,-230.61084,269.875031,-230.893051z"/>
    <path transform="matrix(1.154426,0,0,-1.154426,-4.620331,-402.111237)" style="stroke:#000000;stroke-width:0.05mm;fill:none" d="M80.25695,-231.210541C79.128059,-231.704437,60.571949,-242.040833,54.327782,-245.63916C49.318336,-248.531952,46.566669,-250.401672,46.566669,-250.930832C46.566669,-251.177765,46.954727,-251.812775,47.413338,-252.377228L48.224724,-253.435547L59.831116,-246.944443C74.541946,-238.759995,84.631393,-233.044998,85.548615,-232.339447C86.218895,-231.845551,86.218895,-231.810272,84.948898,-231.281097C83.361397,-230.61084,81.703339,-230.575562,80.25695,-231.210541z"/>
    <path transform="matrix(1.154426,0,0,-1.154426,-4.620331,-402.111237)" style="stroke:#000000;stroke-width:0.05mm;fill:none" d="M88.900009,-232.692215C88.900009,-233.044998,90.805008,-235.126389,101.247231,-246.0625C112.747787,-258.162781,147.108337,-294.32251,163.300842,-311.43222C169.61557,-318.064453,174.907227,-323.497223,175.04834,-323.497223C175.224731,-323.497223,175.330566,-322.403625,175.26001,-321.098328L175.154175,-318.664154L138.994461,-280.423065C119.097794,-259.397491,101.106117,-240.41806,98.95417,-238.230835C95.108894,-234.350281,95.038338,-234.315002,92.145561,-233.397766C88.935287,-232.374725,88.900009,-232.374725,88.900009,-232.692215z"/>
    <path transform="matrix(1.154426,0,0,-1.154426,-4.620331,-402.111237)" style="stroke:#000000;stroke-width:0.05mm;fill:none" d="M262.290283,-233.00972C262.113892,-233.080276,261.055573,-233.397766,259.997253,-233.715271C258.938904,-234.032776,257.598358,-234.738327,257.033905,-235.232208C256.50473,-235.761383,251.424744,-241.088333,245.74501,-247.120819C234.279739,-259.326935,213.606964,-281.058044,192.651962,-302.965546C184.961395,-311.008881,178.540848,-317.782227,178.399734,-318.064453C178.258621,-318.311401,178.152786,-319.757782,178.223343,-321.274719L178.329178,-323.991119L217.875565,-282.186951C262.113892,-235.443878,263.877808,-233.538879,263.877808,-233.115555C263.877808,-232.833328,262.99585,-232.762772,262.290283,-233.00972z"/>
    <path transform="matrix(1.154426,0,0,-1.154426,-4.620331,-402.111237)" style="stroke:#000000;stroke-width:0.05mm;fill:none" d="M182.139175,-246.944443C180.551682,-247.297211,179.916672,-247.93222,179.916672,-249.061111C179.916672,-250.578049,180.975006,-251.213043,184.114731,-251.636383L186.936951,-251.989166L187.042786,-268.146393C187.148621,-283.421661,187.183899,-284.303619,187.818909,-285.009155C189.230011,-286.561401,191.628906,-285.573608,195.474182,-281.975281C198.54335,-279.047211,199.425293,-277.847778,199.390015,-276.507202C199.319458,-274.214172,197.767242,-273.967224,194.310013,-275.73111C193.392792,-276.189728,192.546127,-276.577759,192.405014,-276.577759C192.263901,-276.577759,192.263901,-271.144989,192.369736,-264.477509C192.581406,-254.458618,192.722519,-252.341949,193.145844,-252.024445C193.42807,-251.812775,195.050842,-251.530548,196.744186,-251.424713C200.025009,-251.177765,200.730576,-250.789719,200.730576,-249.272766C200.695297,-247.720551,199.813339,-247.156097,196.920563,-246.873886C193.322235,-246.556396,183.585571,-246.59166,182.139175,-246.944443z"/>
    <path transform="matrix(1.154426,0,0,-1.154426,-4.620331,-402.111237)" style="stroke:#000000;stroke-width:0.05mm;fill:none" d="M161.67807,-247.297211C161.078339,-247.508881,159.561401,-248.320282,158.326675,-249.166931C156.456955,-250.436951,155.927795,-251.001389,154.869461,-253.082764C152.752792,-257.245544,153.211395,-260.87915,156.421677,-265.041931L157.726959,-266.735291L156.527512,-268.216949C154.26973,-270.968628,153.987503,-271.815277,153.987503,-275.695831C153.987503,-278.906128,154.05806,-279.364716,154.940018,-280.881653C156.668625,-283.774445,160.055283,-285.891113,163.75946,-286.314453C169.439178,-286.984711,174.166397,-283.104156,174.836685,-277.283325C175.083618,-274.849182,174.625015,-273.508606,173.355011,-273.191101C171.69696,-272.767761,170.815018,-273.826111,169.298065,-278.059448C168.663071,-279.823334,168.416122,-280.140839,167.005005,-280.846375C163.053894,-282.751404,159.349731,-280.423065,158.85585,-275.766388L158.64418,-273.861389L161.713348,-270.580566C163.371399,-268.746094,164.747238,-266.982239,164.747238,-266.664734C164.747238,-266.311951,164.07695,-265.429993,163.265564,-264.689148C159.455566,-261.30249,158.397232,-259.468048,158.891129,-257.069153C159.490845,-254.176392,162.383621,-251.953888,165.170563,-252.341949C167.710571,-252.694717,168.486679,-253.541382,170.532791,-258.303894C171.555847,-260.738037,172.755295,-261.30249,174.025284,-260.032501C175.47168,-258.586121,174.766129,-253.823608,172.614182,-250.719162C170.815018,-248.14389,164.958893,-246.309448,161.67807,-247.297211z"/>
    <path transform="matrix(1.154426,0,0,-1.154426,-4.620331,-402.111237)" style="stroke:#000000;stroke-width:0.05mm;fill:none" d="M271.638916,-247.826385C271.391968,-248.14389,271.286133,-248.849442,271.391968,-249.519714L271.568359,-250.683884L265.359467,-252.377228C258.198059,-254.352783,256.328339,-255.058319,255.799179,-256.046112C255.128906,-257.280823,256.116669,-257.668884,259.397522,-257.421936C262.431396,-257.174988,270.368896,-255.305267,273.86142,-254C276.507233,-253.012222,277.248077,-251.777496,276.366119,-249.943054C275.3078,-247.720551,272.697235,-246.556396,271.638916,-247.826385z"/>
    <path transform="matrix(1.154426,0,0,-1.154426,-4.620331,-402.111237)" style="stroke:#000000;stroke-width:0.05mm;fill:none" d="M53.128338,-254.105835C52.352226,-254.529175,51.68195,-255.023056,51.646671,-255.234711C51.576115,-255.411102,53.481113,-256.681091,55.844727,-257.986389C58.208336,-259.326935,72.601669,-267.405548,87.841675,-275.94278C132.503342,-301.025269,165.911407,-319.651947,166.017227,-319.510834C166.087784,-319.440277,163.865295,-317.147217,161.113617,-314.430847L156.104172,-309.421387L112.536118,-285.185547C74.012779,-263.771942,54.96278,-253.294434,54.610004,-253.294434C54.539448,-253.294434,53.869171,-253.647217,53.128338,-254.105835z"/>
    <path transform="matrix(1.154426,0,0,-1.154426,-4.620331,-402.111237)" style="stroke:#000000;stroke-width:0.05mm;fill:none" d="M294.675293,-255.128876C292.770294,-256.116669,287.161133,-259.185822,282.222229,-261.9375C274.073059,-266.488342,210.573074,-301.977783,200.730576,-307.516388C197.696686,-309.209717,195.968063,-310.479736,193.921951,-312.49054C190.006119,-316.335846,187.289734,-319.510834,188.383347,-318.911102C188.877228,-318.664154,202.141678,-311.220551,217.840286,-302.401123C263.278076,-276.895264,298.838074,-256.998596,300.496124,-256.151947C301.307526,-255.728607,301.977783,-255.269989,301.977783,-255.093597C301.977783,-254.634995,299.578918,-253.294434,298.802795,-253.294434C298.414734,-253.294434,296.580292,-254.105835,294.675293,-255.128876z"/>
    <path transform="matrix(1.154426,0,0,-1.154426,-4.620331,-402.111237)" style="stroke:#000000;stroke-width:0.05mm;fill:none" d="M96.484726,-254.529175C94.685562,-255.164154,92.992226,-257.069153,92.427788,-259.150543C92.039726,-260.526398,92.075005,-261.020264,92.674728,-263.172211L93.415565,-265.641663L92.463058,-265.641663C91.334175,-265.641663,90.099449,-264.44223,87.665283,-260.87915C85.372231,-257.527771,83.643616,-255.763885,82.655838,-255.763885C81.985558,-255.763885,81.844452,-255.940277,81.844452,-256.822205C81.844452,-258.127502,82.761673,-259.961945,85.231117,-263.701385C88.653061,-268.851929,89.923065,-269.698608,94.861954,-270.121948C97.401955,-270.333618,98.777786,-269.910278,98.777786,-268.922485C98.777786,-268.640259,98.142784,-266.94696,97.366676,-265.218323C95.46167,-261.055542,95.355843,-260.385284,96.308342,-259.185822C97.225563,-258.021667,98.918892,-257.915833,101.106117,-258.903625C103.434448,-259.961945,105.268898,-261.866943,108.338074,-266.453064C112.077507,-271.991669,112.677231,-272.485565,113.770844,-270.827515C114.229446,-270.08667,114.229446,-269.804443,113.806122,-268.393341C113.065277,-265.888611,110.278343,-261.690552,107.456123,-258.833069C105.48056,-256.786926,104.492783,-256.08139,102.65834,-255.340546C99.553894,-254.105835,98.178062,-253.929443,96.484726,-254.529175z"/>
    <path transform="matrix(1.154426,0,0,-1.154426,-4.620331,-402.111237)" style="stroke:#000000;stroke-width:0.05mm;fill:none" d="M259.00946,-261.972778C258.374451,-262.396118,258.233337,-262.78418,258.303894,-263.983612L258.409729,-265.429993L254.352798,-266.417786C247.967514,-267.934723,245.498077,-268.81665,244.404465,-269.875C243.310852,-271.003876,243.381409,-271.885834,244.616135,-272.203339C245.603912,-272.450287,253.259186,-270.898071,257.98642,-269.486938C261.725861,-268.358063,263.348633,-267.476105,263.701416,-266.347229C264.018921,-265.324158,262.925293,-263.348602,261.443634,-262.325562C259.891418,-261.231934,259.997253,-261.267212,259.00946,-261.972778z"/>
</svg>
