<?xml version="1.0" encoding="UTF-8" standalone="no"?>
<svg
   width="299.992mm"
   height="341.45999mm"
   viewBox="49.003986 -376.72989 299.99203 341.45981"
   version="1.1"
   id="svg37"
   sodipodi:docname="EVEN.svg"
   inkscape:export-filename="ODD.png"
   inkscape:export-xdpi="96"
   inkscape:export-ydpi="96"
   xmlns:inkscape="http://www.inkscape.org/namespaces/inkscape"
   xmlns:sodipodi="http://sodipodi.sourceforge.net/DTD/sodipodi-0.dtd"
   xmlns="http://www.w3.org/2000/svg"
   xmlns:svg="http://www.w3.org/2000/svg">
  <defs
     id="defs37" />
  <sodipodi:namedview
     id="namedview37"
     pagecolor="#ffffff"
     bordercolor="#000000"
     borderopacity="0.25"
     inkscape:showpageshadow="2"
     inkscape:pageopacity="0.0"
     inkscape:pagecheckerboard="0"
     inkscape:deskcolor="#d1d1d1"
     inkscape:document-units="mm">
    <inkscape:page
       x="0"
       y="0"
       width="299.99203"
       height="341.45981"
       id="page2"
       margin="0"
       bleed="0" />
  </sodipodi:namedview>
  <path
     style="fill:none;stroke:#000000;stroke-width:0.0485154mm"
     d="m 197.76089,-376.37521 c -0.44499,0.27385 -0.51346,3.04652 -0.61614,20.84626 l -0.10269,20.50397 0.99268,0.68462 0.99268,0.71882 1.26651,-0.88997 1.26653,-0.92424 -0.1027,-20.29856 c -0.10269,-22.28395 0.0342,-20.9832 -2.15651,-20.9832 -0.54768,0 -1.26651,0.17115 -1.54036,0.3423 z"
     id="path1" />
  <path
     style="fill:none;stroke:#000000;stroke-width:0.0485154mm"
     d="m 188.34756,-371.85679 c -10.2691,6.09299 -30.12268,17.38899 -74.96439,42.65097 -54.186582,30.4992 -53.878507,30.32805 -53.775819,30.43073 0.06846,0.0685 4.004945,-0.95843 8.797188,-2.2592 l 8.72873,-2.3961 21.017411,-11.94638 c 17.93669,-10.20064 88.96458,-50.31856 94.37297,-53.33085 l 1.81421,-0.99266 v -2.84113 c 0,-1.54036 -0.0343,-2.80687 -0.0684,-2.77264 -0.0685,0 -2.70421,1.57459 -5.92185,3.45726 z"
     id="path2" />
  <path
     style="fill:none;stroke:#000000;stroke-width:0.0485154mm"
     d="m 204.50427,-374.76639 c -0.13693,0.1027 -0.23962,1.33501 -0.23962,2.70421 v 2.49882 l 3.52573,1.95113 c 1.9169,1.09536 24.20083,13.6579 49.53126,27.96615 25.33044,14.30828 50.3528,28.4454 55.62426,31.42344 l 9.61871,5.40838 9.31064,2.90959 c 5.13454,1.60882 9.44757,2.94379 9.55026,2.94379 0.47923,0 -5.75069,-3.62841 -21.97584,-12.83635 -9.20798,-5.23724 -25.33043,-14.37675 -35.7707,-20.36706 -10.44025,-5.95607 -32.17648,-18.27897 -48.26474,-27.38422 -16.08824,-9.10529 -29.57497,-16.73864 -29.98574,-17.01249 -0.37655,-0.23962 -0.82154,-0.34231 -0.92422,-0.20539 z"
     id="path3" />
  <path
     style="fill:none;stroke:#000000;stroke-width:0.0485154mm"
     d="m 193.4821,-332.66308 c -6.16145,1.43767 -139.248909,38.40641 -139.659672,38.81718 -0.581917,0.58189 0.308074,1.4719 2.293433,2.25918 l 1.916898,0.75307 10.577165,-2.87533 c 10.269096,-2.77267 74.861686,-20.50398 106.216666,-29.13 16.60169,-4.58687 16.67015,-4.6211 20.36704,-7.83874 1.33497,-1.16385 1.33497,-1.23231 0.71883,-1.71151 -0.68461,-0.51347 -1.16383,-0.58193 -2.43036,-0.27385 z"
     id="path7" />
  <path
     style="fill:none;stroke:#000000;stroke-width:0.0485154mm"
     d="m 202.03967,-332.42346 c -0.58191,0.41074 -0.37652,0.65035 2.60152,2.87533 l 3.21764,2.43036 28.06885,7.70182 c 15.43789,4.24456 45.2867,12.49404 66.37257,18.3132 l 38.26951,10.57717 1.67729,-1.02692 c 0.9242,-0.54766 1.67728,-1.12959 1.67728,-1.23227 -0.0342,-0.51347 -28.06888,-9.34487 -39.87833,-12.59674 -11.56985,-3.18345 -73.6294,-20.2986 -87.83497,-24.23508 -6.50375,-1.81421 -12.22023,-3.28611 -12.66521,-3.28611 -0.47924,0 -1.16384,0.20539 -1.50615,0.47924 z"
     id="path8" />
  <path
     style="fill:none;stroke:#000000;stroke-width:0.0485154mm"
     d="m 200.49931,-326.98085 c 0,1.60882 0.23962,2.60148 0.95845,4.1761 0.5477,1.12959 14.47942,26.39156 30.94421,56.13772 26.56273,47.95665 48.05937,86.94497 60.86149,110.39273 2.29343,4.24456 4.21033,7.73605 4.24457,7.77028 0.0342,0.0342 0.71884,0.17115 1.50612,0.30807 l 1.43766,0.23962 v -2.63571 -2.63575 l -21.12009,-38.06411 c -19.95625,-36.0103 -58.53383,-105.84013 -69.28215,-125.4541 l -4.92917,-9.00257 -2.29342,-1.67728 -2.32767,-1.71151 z"
     id="path9" />
  <path
     style="fill:none;stroke:#000000;stroke-width:0.0485154mm"
     d="m 195.0567,-327.08354 c -1.84844,1.43766 -2.46459,2.22497 -3.90225,4.86069 -7.59913,14.13713 -25.53582,46.89553 -40.28909,73.52671 -33.10071,59.80036 -50.76355,91.87415 -51.721997,93.928 -0.718843,1.47189 -0.992683,2.60148 -0.992683,3.86802 v 1.81418 h 1.163826 c 0.958454,0 1.369224,-0.23959 2.019594,-1.09533 0.7873,-1.02693 18.99783,-33.88803 63.73685,-114.77425 9.37909,-16.94403 20.53817,-37.13989 24.8512,-44.91018 l 7.83874,-14.1029 v -2.39612 c 0,-1.33498 -0.10269,-2.43033 -0.23961,-2.43033 -0.17116,0 -1.26653,0.78728 -2.46458,1.71151 z"
     id="path10" />
  <path
     style="fill:none;stroke:#000000;stroke-width:0.0485154mm"
     d="m 343.37664,-289.01944 -1.71152,1.06115 -3.86802,13.38405 c -2.12228,7.35951 -10.78254,37.37948 -19.23744,66.74909 l -15.3694,53.33085 v 3.32033 c 0,3.42303 0.23961,4.14187 1.43766,4.14187 1.16385,0 -0.27385,4.82647 22.83161,-75.47785 10.54295,-36.72911 13.45252,-47.10091 15.43787,-54.97388 1.335,-5.203 2.73844,-11.63831 2.73844,-12.32292 0,-0.47921 -0.41077,-0.34228 -2.2592,0.78731 z"
     id="path11" />
  <path
     style="fill:none;stroke:#000000;stroke-width:0.0485154mm"
     d="m 50.810163,-261.84057 c -0.342305,41.93213 -1.232292,112.00157 -1.608827,125.41985 -0.17115,6.46954 -0.239612,11.8437 -0.17115,11.91216 0.06846,0.0685 1.19806,-0.44501 2.498814,-1.12962 l 2.36189,-1.30071 0.239612,-21.94167 c 0.581913,-56.24039 0.889987,-86.91074 0.958449,-102.04056 l 0.102689,-16.43053 -1.779974,-10.44025 c -0.958449,-5.7507 -1.916898,-10.81677 -2.088051,-11.26178 -0.171151,-0.51345 -0.376532,10.13218 -0.513452,27.21311 z"
     id="path12" />
  <path
     style="fill:none;stroke:#000000;stroke-width:0.0485154mm"
     d="m 54.507034,-288.16367 c 0.102693,0.54766 0.889991,5.20299 1.711516,10.37177 0.85576,5.16879 1.882666,10.64563 2.259202,12.15177 0.376532,1.50612 4.997628,17.52591 10.234865,35.59951 10.200633,35.15454 21.565093,74.4167 22.694697,78.45588 l 0.684601,2.4988 h 1.677288 1.643054 v -2.19072 c 0,-1.30077 -0.41076,-3.79957 -0.992675,-6.05877 -0.547686,-2.15651 -8.14682,-28.71923 -16.909773,-59.01306 -22.386627,-77.36049 -20.640884,-71.43867 -21.496641,-72.12326 -1.095368,-0.92423 -1.677285,-0.78731 -1.506134,0.30808 z"
     id="path14" />
  <path
     style="fill:none;stroke:#000000;stroke-width:0.0485154mm"
     d="m 347.24466,-283.26875 c -0.13692,0.47923 -1.16382,5.40838 -2.2592,10.95369 l -2.01959,10.09795 0.27384,22.93431 c 0.17115,12.63099 0.47924,39.87831 0.68462,60.58766 0.17115,20.70935 0.445,40.90522 0.54769,44.87594 l 0.20536,7.22259 1.84846,0.88997 c 1.0269,0.51347 2.01956,0.92424 2.19072,0.92424 0.23961,0 0.30808,-4.62112 0.17115,-13.62367 -0.17115,-11.53562 -1.09535,-109.19468 -1.30074,-136.81855 -0.0342,-4.89496 -0.17115,-8.52336 -0.34231,-8.04413 z"
     id="path15" />
  <path
     style="fill:none;stroke:#000000;stroke-width:0.0485154mm"
     d="m 104.82559,-146.0052 -6.503758,0.17116 2.053818,0.99266 c 1.12961,0.51346 3.18343,1.40346 4.55264,1.95116 l 2.49881,0.99266 h 92.11377 92.14801 l 4.27878,-1.60882 c 4.17611,-1.57462 4.24454,-1.64308 3.11495,-1.9169 -0.65038,-0.13692 -4.89492,-0.41076 -9.41332,-0.58192 -8.59183,-0.30805 -173.51346,-0.34228 -184.8437,0 z"
     id="path24" />
  <path
     style="fill:none;stroke:#000000;stroke-width:0.0485154mm"
     d="m 83.773955,-140.11759 c -4.621096,2.63572 -13.931743,7.80452 -20.709345,11.50139 -6.777598,3.66263 -12.665214,6.98297 -13.110207,7.42797 -0.753067,0.68462 -0.787298,0.85577 -0.410762,2.19074 0.205381,0.78731 0.581913,1.50613 0.821525,1.60882 0.273843,0.1027 1.471904,-0.27385 2.738426,-0.85574 2.259202,-1.0269 14.855953,-7.80451 25.227741,-13.58944 3.114955,-1.71153 8.215275,-4.48417 11.36446,-6.12722 5.613776,-2.90959 5.716464,-2.97806 5.716464,-4.07341 0,-1.19805 -0.547681,-1.84844 -2.156509,-2.53306 -0.513455,-0.23962 -0.992679,-0.41077 -1.02691,-0.41077 -0.03423,0.0342 -3.833794,2.19077 -8.454883,4.86072 z"
     id="path25" />
  <path
     style="fill:none;stroke:#000000;stroke-width:0.0485154mm"
     d="m 303.9091,-143.36946 c -1.91689,1.5746 -2.08804,1.43767 21.35972,14.44518 11.98059,6.64069 21.97584,11.98062 22.24969,11.87793 0.71885,-0.27385 1.60882,-2.19073 1.4719,-3.21765 -0.1027,-0.78731 -0.75305,-1.26653 -5.06608,-3.59418 -2.73844,-1.47192 -10.88523,-5.9903 -18.14208,-9.99526 -15.78018,-8.76293 -17.66285,-9.68717 -19.57974,-9.96101 -1.16382,-0.17117 -1.64305,-0.0685 -2.29341,0.44499 z"
     id="path26" />
  <path
     style="fill:none;stroke:#000000;stroke-width:0.0485154mm"
     d="m 98.15068,-141.41833 c 0,0.71882 0.376537,1.60882 0.992683,2.4646 0.54769,0.71881 9.516027,10.2006 19.922047,21.01737 10.44023,10.85102 27.28155,28.548103 37.44796,39.364874 10.1664,10.81679 23.51622,24.74854 29.67768,30.978431 l 11.1933,11.295996 0.0342,-2.669948 v -2.669967 l -8.11257,-8.626029 c -4.44995,-4.758021 -16.67017,-17.628614 -27.11041,-28.650798 -28.75347,-30.293809 -35.97606,-37.927179 -46.48476,-49.120479 -5.27148,-5.64799 -10.13218,-10.7483 -10.74833,-11.36446 -0.68461,-0.65038 -2.29343,-1.50616 -3.97071,-2.12228 l -2.841121,-1.0269 z"
     id="path27" />
  <path
     style="fill:none;stroke:#000000;stroke-width:0.0485154mm"
     d="m 297.67918,-141.21297 c -1.26654,0.47923 -2.84113,1.19808 -3.52571,1.57462 -0.71885,0.37653 -6.50378,6.33259 -14.13714,14.51363 -12.22023,13.14446 -40.25485,42.616743 -67.46794,70.856771 l -12.35715,12.83635 v 3.080747 l -0.0342,3.080719 2.9438,-2.909595 c 6.50377,-6.401044 26.97349,-27.555379 37.61912,-38.851375 6.19569,-6.606458 18.58707,-19.682436 27.5554,-29.095787 30.08844,-31.62879 32.17649,-33.888 32.17649,-35.08608 0,-0.99266 -0.34228,-0.99266 -2.77264,0 z"
     id="path28" />
  <path
     style="fill:none;stroke:#000000;stroke-width:0.0485154mm"
     d="m 55.568176,-116.32751 c -1.711517,0.85577 -2.259203,1.26651 -1.882667,1.4719 5.168775,2.84113 133.566681,74.690525 136.887011,76.607427 l 1.54037,0.889995 -2.12228,-2.361894 c -1.1296,-1.334969 -3.83379,-4.107644 -5.99031,-6.195689 -3.08073,-3.012262 -4.48416,-4.107614 -6.94875,-5.442622 -5.33993,-2.875323 -41.79521,-23.139682 -68.63177,-38.166784 -24.098146,-13.520983 -50.318564,-28.103113 -50.455483,-28.068873 0,0.0343 -1.095372,0.58192 -2.396121,1.26654 z"
     id="path31" />
  <path
     style="fill:none;stroke:#000000;stroke-width:0.0485154mm"
     d="m 338.96091,-117.11482 c -0.65035,0.44501 -78.49008,44.122867 -107.14085,60.108429 l -13.69214,7.667597 -5.06608,4.963407 c -5.7507,5.647998 -6.67491,6.811814 -4.31301,5.442613 3.76533,-2.190742 60.07419,-33.716874 109.94775,-61.546096 l 25.94659,-14.47944 -2.43036,-1.30073 c -1.33499,-0.75309 -2.46459,-1.33501 -2.49881,-1.33501 -0.0685,0 -0.37655,0.20538 -0.75309,0.47923 z"
     id="path32" />
  <path
     style="fill:#000000;stroke-width:0.292597"
     d="m 62.46342,-300.16683 c 0.482784,-0.29364 12.99128,-7.35796 27.796656,-15.69848 60.520594,-34.09391 84.453444,-47.67809 97.580894,-55.3865 l 5.99823,-3.52214 0.0887,2.38689 c 0.0753,2.02559 0.009,2.4458 -0.43889,2.7761 -0.29018,0.21407 -10.46856,5.98769 -22.61863,12.83026 -12.15006,6.84258 -36.64038,20.68484 -54.42293,30.76059 -17.782541,10.07575 -34.043586,19.27045 -36.135649,20.43267 -3.650189,2.0278 -4.093165,2.19074 -10.972366,4.03599 -3.942736,1.05758 -7.30028,1.92189 -7.461208,1.9207 -0.160928,-0.001 0.102409,-0.24243 0.585193,-0.53608 z"
     id="path37" />
  <path
     style="fill:#000000;stroke-width:0.292597"
     d="m 55.852251,-292.09638 c -1.030769,-0.52302 -1.874126,-1.08261 -1.874126,-1.24354 0,-0.16093 4.213388,-1.49839 9.363084,-2.97213 22.616067,-6.47229 118.026011,-32.9328 128.973061,-35.76873 1.70838,-0.44257 2.47091,-0.51732 3.04618,-0.2986 l 0.76736,0.29175 -0.99801,1.03195 c -2.39917,2.48077 -5.12348,3.68971 -13.87225,6.15591 -4.97922,1.4036 -75.52988,20.77959 -105.234523,28.90155 -9.761513,2.66902 -17.871605,4.85277 -18.022428,4.85277 -0.150822,0 -1.117579,-0.42792 -2.148348,-0.95093 z"
     id="path38" />
  <path
     style="fill:#000000;stroke-width:0.292597"
     d="m 198.14821,-334.562 -0.95772,-0.6192 0.16381,-18.72617 c 0.0901,-10.29939 0.23392,-19.53615 0.31959,-20.52613 0.15522,-1.79355 0.1595,-1.80065 1.20129,-1.99609 1.8093,-0.33943 1.95911,0.0483 2.17759,5.63504 0.10519,2.6899 0.20394,11.6935 0.21945,20.008 l 0.0282,15.11728 -1.09724,0.86324 -1.09724,0.86324 z"
     id="path39" />
  <path
     style="fill:#000000;stroke-width:0.292597"
     d="m 330.33541,-300.64296 -7.7538,-2.44546 -44.47465,-25.1241 c -24.46106,-13.81825 -51.02036,-28.80756 -59.02068,-33.30958 l -14.54603,-8.18548 -0.0106,-2.44522 c -0.009,-2.15724 0.0464,-2.42335 0.47346,-2.25946 0.26625,0.10217 3.92004,2.14047 8.11955,4.52955 4.1995,2.38909 20.86812,11.84696 37.04139,21.0175 56.58984,32.08746 88.6567,50.38153 88.6567,50.57845 0,0.27762 -1.12292,-0.0342 -8.4853,-2.3562 z"
     id="path40" />
  <path
     style="fill:#000000;stroke-width:0.292597"
     d="m 335.45584,-292.17088 c -3.76534,-1.07089 -98.6484,-27.27286 -120.01656,-33.14259 l -7.36697,-2.02367 -2.62459,-1.95419 c -2.84195,-2.11602 -3.46594,-2.71873 -3.14599,-3.03868 0.44259,-0.44258 2.56461,-0.0918 7.48397,1.23716 12.61251,3.40725 97.69506,26.92496 101.23835,27.98335 11.84429,3.53792 29.52735,9.14896 31.66405,10.04737 l 0.86158,0.36227 -1.43917,0.9235 c -0.79153,0.50793 -1.62512,0.90781 -1.85243,0.88862 -0.2273,-0.0192 -2.38831,-0.59661 -4.80224,-1.28314 z"
     id="path41" />
  <path
     style="fill:#000000;stroke-width:0.292597"
     d="m 298.29611,-148.5566 c -0.42602,-0.0863 -2.09333,-2.88089 -6.12974,-10.27418 -9.02527,-16.53113 -20.99806,-38.25465 -53.41165,-96.9105 -37.71104,-68.24216 -37.08433,-67.09691 -37.62922,-68.76284 -0.24545,-0.7504 -0.40525,-1.9732 -0.35513,-2.71733 l 0.0911,-1.35297 2.08532,1.5801 c 1.80362,1.36665 2.2731,1.92831 3.47548,4.15782 4.35017,8.06631 47.6233,86.43204 77.86658,141.01296 l 15.9091,28.7116 v 2.37676 c 0,2.58399 0.015,2.56675 -1.90188,2.17858 z"
     id="path42" />
  <path
     style="fill:#000000;stroke-width:0.292597"
     d="m 98.385927,-151.06492 c 0.232413,-2.64438 -2.297287,2.07245 38.249993,-71.32037 31.64972,-57.28776 39.86799,-72.23974 50.90077,-92.60676 2.61523,-4.82784 5.07226,-9.19967 5.46006,-9.71517 0.64878,-0.86242 3.94194,-3.59797 4.33138,-3.59797 0.0927,0 0.16852,0.95204 0.16852,2.11564 v 2.11564 l -5.52016,9.95396 c -3.03609,5.47468 -21.18987,38.26267 -40.34173,72.86219 -51.863467,93.69591 -50.12491,90.5905 -51.18235,91.42228 -0.41903,0.3296 -1.09157,0.59928 -1.494538,0.59928 -0.720823,0 -0.730073,-0.0296 -0.571945,-1.82872 z"
     id="path43" />
  <path
     style="fill:#000000;stroke-width:0.292597"
     d="m 304.00174,-147.47394 c -0.3359,-0.21196 -0.46205,-1.03167 -0.53757,-3.49296 l -0.0987,-3.21601 19.08157,-66.21364 c 10.49489,-36.41751 19.18663,-66.49255 19.31498,-66.83341 0.19132,-0.50801 2.85047,-2.4525 3.35389,-2.4525 0.8664,0 -3.02829,15.0219 -12.44116,47.98581 -18.24074,63.87916 -26.38123,91.72058 -27.39785,93.70399 -0.44771,0.87347 -0.60902,0.93909 -1.27519,0.51872 z"
     id="path44" />
  <path
     style="fill:#000000;stroke-width:0.292597"
     d="m 346.53466,-125.97846 -1.50281,-0.68721 -0.17444,-3.16572 c -0.19452,-3.53052 -0.35911,-15.23434 -0.77694,-55.24786 -0.15629,-14.96631 -0.41461,-38.46912 -0.57402,-52.22846 l -0.28985,-25.01699 2.01565,-9.80198 2.01567,-9.80198 0.0316,2.77967 c 0.0175,1.52881 0.22442,23.51743 0.46006,48.86359 0.23564,25.34616 0.57404,59.21359 0.75203,75.26095 0.17798,16.04736 0.2396,29.31295 0.13692,29.47909 -0.24313,0.39336 -0.32242,0.37696 -2.09389,-0.4331 z"
     id="path45" />
  <path
     style="fill:#000000;stroke-width:0.292597"
     d="m 103.48,-143.80003 c -2.06286,-0.86625 -3.808031,-1.63237 -3.878148,-1.70249 -0.361887,-0.36189 29.449688,-0.51457 99.478818,-0.50949 72.11852,0.005 97.73556,0.21334 99.34045,0.80702 0.53534,0.19804 0.016,0.48037 -2.9719,1.61554 l -3.62061,1.37557 -92.29897,-0.006 -92.29897,-0.006 z"
     id="path46" />
  <path
     style="fill:#000000;stroke-width:0.292597"
     d="m 200.43337,-38.571783 -0.0107,-2.716662 14.84926,-15.432008 c 24.81296,-25.786715 45.69132,-47.704027 64.01069,-67.195977 14.39488,-15.31626 14.45328,-15.37177 17.50666,-16.63822 5.64971,-2.34335 5.18122,-1.61471 -7.86935,12.2391 -2.42556,2.57484 -11.90749,12.58525 -21.07095,22.24536 -9.16346,9.660094 -21.26923,22.428092 -26.90172,28.373306 -11.87365,12.532968 -24.06405,25.173146 -33.71098,34.954818 l -6.79211,6.886971 z"
     id="path47" />
  <path
     style="fill:#000000;stroke-width:0.292597"
     d="m 338.96872,-121.76392 c -9.88254,-5.32631 -25.99897,-14.27074 -30.43174,-16.88927 -5.41369,-3.19798 -5.89958,-3.72794 -4.21611,-4.5985 1.34017,-0.69303 2.74538,-0.33246 6.80953,1.7473 5.306,2.71527 35.58621,19.44641 36.71681,20.28764 0.84791,0.63091 0.95586,0.85041 0.80036,1.62777 -0.19201,0.96014 -0.92414,2.24777 -1.27516,2.24274 -0.117,-0.002 -3.89866,-1.98964 -8.40369,-4.41768 z"
     id="path48" />
  <path
     style="fill:#000000;stroke-width:0.292597"
     d="m 208.90031,-39.732008 c -0.004,-0.120676 2.13543,-2.294784 4.75469,-4.831291 l 4.7623,-4.611846 43.30426,-24.260519 c 23.81735,-13.343281 51.13588,-28.667046 60.70787,-34.052796 l 17.40357,-9.79227 1.97551,1.06601 c 1.08654,0.5863 1.94504,1.16316 1.90778,1.28192 -0.0373,0.11875 -18.23796,10.36716 -40.44604,22.774267 -50.72295,28.337642 -70.04582,39.148914 -83.44527,46.688163 -5.82382,3.276811 -10.66263,5.957808 -10.75291,5.957808 -0.0903,0 -0.16758,-0.09874 -0.17176,-0.219446 z"
     id="path49" />
  <path
     style="fill:#000000;stroke-width:0.292597"
     d="m 89.276313,-159.84595 c -1.667569,-5.83192 -7.171905,-24.8895 -12.23186,-42.35019 -15.112389,-52.14924 -18.214002,-63.01714 -18.802557,-65.88325 -0.883403,-4.30196 -3.572119,-20.49038 -3.427279,-20.63522 0.245134,-0.24514 1.31562,0.60831 1.630872,1.30022 0.587466,1.28934 12.487191,42.15041 28.950349,99.40917 9.590011,33.354 9.418058,32.70899 9.613821,36.06251 l 0.157996,2.70651 -1.4297,-0.003 -1.429703,-0.003 z"
     id="path50" />
  <path
     style="fill:#000000;stroke-width:0.292597"
     d="m 49.265064,-129.41279 c 0.354638,-8.52261 1.145447,-66.31708 1.638487,-119.74508 0.164842,-17.863 0.386303,-33.59737 0.492136,-34.96526 0.226811,-2.93155 0.01564,-3.7783 2.132345,8.55019 l 1.49312,8.69648 -0.293374,32.26701 c -0.161356,17.74686 -0.433637,48.00138 -0.605069,67.23228 -0.171432,19.23089 -0.385487,36.18791 -0.475678,37.68225 l -0.163984,2.71699 -2.012779,1.01361 c -1.107028,0.55749 -2.097851,1.01362 -2.201828,1.01362 -0.103977,0 -0.105497,-2.00794 -0.0034,-4.46209 z"
     id="path51" />
  <path
     style="fill:#000000;stroke-width:0.292597"
     d="m 50.090998,-118.44043 c -0.65134,-1.7431 -0.648428,-1.85649 0.0643,-2.50365 0.388729,-0.35297 4.041258,-2.47812 8.116731,-4.72257 15.964504,-8.79197 20.823124,-11.49453 27.238926,-15.15138 7.095162,-4.04408 7.220651,-4.08464 8.79793,-2.84396 0.862954,0.6788 1.057632,2.02302 0.375028,2.58953 -0.222199,0.18441 -4.139334,2.3498 -8.704741,4.81197 -4.565409,2.46217 -11.724119,6.36224 -15.908247,8.66681 -9.080396,5.0014 -18.664348,9.95789 -19.254727,9.95789 -0.233493,0 -0.559834,-0.36209 -0.725201,-0.80464 z"
     id="path52" />
  <path
     style="fill:#000000;stroke-width:0.292597"
     d="m 189.38705,-44.751497 c -9.85444,-9.996885 -14.60137,-14.942556 -34.01067,-35.434561 -8.76309,-9.251923 -23.97444,-25.248442 -33.803,-35.547852 -23.427501,-24.54979 -22.351581,-23.39271 -22.840814,-24.56362 -0.762799,-1.82563 -0.641472,-1.95152 1.256342,-1.30356 3.686652,1.2587 4.003992,1.54439 16.869802,15.18741 6.75334,7.1613 23.94696,25.33155 38.20804,40.378293 14.26109,15.046775 29.57606,31.228136 34.03328,35.958595 l 8.10403,8.600836 v 2.298383 c 0,1.264126 -0.0329,2.277983 -0.0731,2.253033 -0.0402,-0.02487 -3.52497,-3.547084 -7.74386,-7.826957 z"
     id="path53" />
  <path
     style="fill:#000000;stroke-width:0.292597"
     d="M 153.14063,-59.503129 C 133.00941,-70.796842 102.50049,-87.87141 85.343035,-97.446628 68.185581,-107.02185 54.142434,-114.94607 54.136043,-115.056 c -0.0064,-0.10993 0.86403,-0.66485 1.934268,-1.23314 l 1.945888,-1.03328 14.366361,7.99185 c 7.901499,4.39549 27.335695,15.23452 43.1871,24.086711 15.85141,8.852191 35.53584,19.816471 43.74316,24.365055 19.60085,10.862945 19.39622,10.746052 20.92065,11.952023 2.87154,2.27166 10.46525,10.038556 9.75607,9.978549 -0.13568,-0.01138 -16.71769,-9.261184 -36.84891,-20.554897 z"
     id="path54" />
  <text
     xml:space="preserve"
     style="font-size:24.1857px;writing-mode:lr-tb;direction:ltr;fill:#000000;stroke-width:0.403094"
     x="145.81543"
     y="-362.37595"
     id="text54"
     transform="scale(1.0849228,0.92172456)"><tspan
       sodipodi:role="line"
       id="tspan54"
       style="font-size:24.1857px;stroke-width:0.403094"
       x="145.81543"
       y="-362.37595">17</tspan></text>
  <text
     xml:space="preserve"
     style="font-size:24.1857px;writing-mode:lr-tb;direction:ltr;fill:#000000;stroke-width:0.403094"
     x="189.18443"
     y="-363.52252"
     id="text54-9"
     transform="scale(1.0849228,0.92172456)"><tspan
       sodipodi:role="line"
       id="tspan54-4"
       style="font-size:24.1857px;stroke-width:0.403094"
       x="189.18443"
       y="-363.52252">11</tspan></text>
  <text
     xml:space="preserve"
     style="font-size:24.1857px;writing-mode:lr-tb;direction:ltr;fill:#000000;stroke-width:0.403094"
     x="49.689083"
     y="-165.45628"
     id="text54-9-6"
     transform="scale(1.0849228,0.92172456)"><tspan
       sodipodi:role="line"
       id="tspan54-4-1"
       style="font-size:24.1857px;stroke-width:0.403094"
       x="49.689083"
       y="-165.45628">15</tspan></text>
  <text
     xml:space="preserve"
     style="font-size:24.1857px;writing-mode:lr-tb;direction:ltr;fill:#000000;stroke-width:0.403094"
     x="68.467308"
     y="-121.53728"
     id="text54-9-6-2"
     transform="scale(1.0849228,0.92172456)"><tspan
       sodipodi:role="line"
       id="tspan54-4-1-3"
       style="font-size:24.1857px;stroke-width:0.403094"
       x="68.467308"
       y="-121.53728">13</tspan></text>
  <text
     xml:space="preserve"
     style="font-size:24.1857px;writing-mode:lr-tb;direction:ltr;fill:#000000;stroke-width:0.403094"
     x="267.46765"
     y="-119.95848"
     id="text54-9-6-21"
     transform="scale(1.0849228,0.92172456)"><tspan
       sodipodi:role="line"
       id="tspan54-4-1-6"
       style="font-size:24.1857px;stroke-width:0.403094"
       x="267.46765"
       y="-119.95848">19</tspan></text>
  <text
     xml:space="preserve"
     style="font-size:24.1857px;writing-mode:lr-tb;direction:ltr;fill:#000000;stroke-width:0.403094"
     x="285.75809"
     y="-160.43289"
     id="text54-9-6-21-5"
     transform="scale(1.0849228,0.92172456)"><tspan
       sodipodi:role="line"
       id="tspan54-4-1-6-7"
       style="font-size:24.1857px;stroke-width:0.403094"
       x="285.75809"
       y="-160.43289">9</tspan></text>
  <text
     xml:space="preserve"
     style="font-size:115.18px;writing-mode:lr-tb;direction:ltr;fill:#000000;stroke-width:1.91966"
     x="146.21255"
     y="-190.30255"
     id="text54-9-8"
     transform="scale(1.0858342,0.92095091)"><tspan
       sodipodi:role="line"
       id="tspan54-4-2"
       style="font-size:115.18px;stroke-width:1.91966"
       x="146.21255"
       y="-190.30255">1</tspan></text>
  <text
     xml:space="preserve"
     style="font-size:94.9442px;writing-mode:lr-tb;direction:ltr;fill:#000000;stroke-width:1.5824"
     x="235.65741"
     y="-248.44785"
     id="text54-9-8-5"
     transform="scale(1.0977534,0.9109514)"><tspan
       sodipodi:role="line"
       id="tspan54-4-2-5"
       style="font-size:94.9442px;stroke-width:1.5824"
       x="235.65741"
       y="-248.44785">7</tspan></text>
  <text
     xml:space="preserve"
     style="font-size:94.9442px;writing-mode:lr-tb;direction:ltr;fill:#000000;stroke-width:1.5824"
     x="65.013412"
     y="-245.25296"
     id="text54-9-8-5-7"
     transform="scale(1.0977534,0.9109514)"><tspan
       sodipodi:role="line"
       id="tspan54-4-2-5-1"
       style="font-size:94.9442px;stroke-width:1.5824"
       x="65.013412"
       y="-245.25296">3</tspan></text>
  <text
     xml:space="preserve"
     style="font-size:94.9442px;writing-mode:lr-tb;direction:ltr;fill:#000000;stroke-width:1.5824"
     x="149.37132"
     y="-80.714592"
     id="text54-9-8-5-7-5"
     transform="scale(1.0977534,0.9109514)"><tspan
       sodipodi:role="line"
       id="tspan54-4-2-5-1-2"
       style="font-size:94.9442px;stroke-width:1.5824"
       x="149.37132"
       y="-80.714592">5</tspan></text>
</svg>
