<?xml version="1.0" encoding="UTF-8" standalone="no"?>
<svg
   width="299.992mm"
   height="341.45999mm"
   viewBox="49.003986 -376.72989 299.99203 341.45981"
   version="1.1"
   id="svg37"
   sodipodi:docname="EVEN.svg"
   xmlns:inkscape="http://www.inkscape.org/namespaces/inkscape"
   xmlns:sodipodi="http://sodipodi.sourceforge.net/DTD/sodipodi-0.dtd"
   xmlns="http://www.w3.org/2000/svg"
   xmlns:svg="http://www.w3.org/2000/svg">
  <defs
     id="defs37" />
  <sodipodi:namedview
     id="namedview37"
     pagecolor="#ffffff"
     bordercolor="#000000"
     borderopacity="0.25"
     inkscape:showpageshadow="2"
     inkscape:pageopacity="0.0"
     inkscape:pagecheckerboard="0"
     inkscape:deskcolor="#d1d1d1"
     inkscape:document-units="mm">
    <inkscape:page
       x="0"
       y="0"
       width="299.99203"
       height="341.45981"
       id="page2"
       margin="0"
       bleed="0" />
  </sodipodi:namedview>
  <path
     style="fill:none;stroke:#000000;stroke-width:0.0485154mm"
     d="m 197.76089,-376.37521 c -0.44499,0.27385 -0.51346,3.04652 -0.61614,20.84626 l -0.10269,20.50397 0.99268,0.68462 0.99268,0.71882 1.26651,-0.88997 1.26653,-0.92424 -0.1027,-20.29856 c -0.10269,-22.28395 0.0342,-20.9832 -2.15651,-20.9832 -0.54768,0 -1.26651,0.17115 -1.54036,0.3423 z"
     id="path1" />
  <path
     style="fill:none;stroke:#000000;stroke-width:0.0485154mm"
     d="m 188.34756,-371.85679 c -10.2691,6.09299 -30.12268,17.38899 -74.96439,42.65097 -54.186582,30.4992 -53.878507,30.32805 -53.775819,30.43073 0.06846,0.0685 4.004945,-0.95843 8.797188,-2.2592 l 8.72873,-2.3961 21.017411,-11.94638 c 17.93669,-10.20064 88.96458,-50.31856 94.37297,-53.33085 l 1.81421,-0.99266 v -2.84113 c 0,-1.54036 -0.0343,-2.80687 -0.0684,-2.77264 -0.0685,0 -2.70421,1.57459 -5.92185,3.45726 z"
     id="path2" />
  <path
     style="fill:none;stroke:#000000;stroke-width:0.0485154mm"
     d="m 204.50427,-374.76639 c -0.13693,0.1027 -0.23962,1.33501 -0.23962,2.70421 v 2.49882 l 3.52573,1.95113 c 1.9169,1.09536 24.20083,13.6579 49.53126,27.96615 25.33044,14.30828 50.3528,28.4454 55.62426,31.42344 l 9.61871,5.40838 9.31064,2.90959 c 5.13454,1.60882 9.44757,2.94379 9.55026,2.94379 0.47923,0 -5.75069,-3.62841 -21.97584,-12.83635 -9.20798,-5.23724 -25.33043,-14.37675 -35.7707,-20.36706 -10.44025,-5.95607 -32.17648,-18.27897 -48.26474,-27.38422 -16.08824,-9.10529 -29.57497,-16.73864 -29.98574,-17.01249 -0.37655,-0.23962 -0.82154,-0.34231 -0.92422,-0.20539 z"
     id="path3" />
  <path
     style="fill:none;stroke:#000000;stroke-width:0.0485154mm"
     d="m 193.4821,-332.66308 c -6.16145,1.43767 -139.248909,38.40641 -139.659672,38.81718 -0.581917,0.58189 0.308074,1.4719 2.293433,2.25918 l 1.916898,0.75307 10.577165,-2.87533 c 10.269096,-2.77267 74.861686,-20.50398 106.216666,-29.13 16.60169,-4.58687 16.67015,-4.6211 20.36704,-7.83874 1.33497,-1.16385 1.33497,-1.23231 0.71883,-1.71151 -0.68461,-0.51347 -1.16383,-0.58193 -2.43036,-0.27385 z"
     id="path7" />
  <path
     style="fill:none;stroke:#000000;stroke-width:0.0485154mm"
     d="m 202.03967,-332.42346 c -0.58191,0.41074 -0.37652,0.65035 2.60152,2.87533 l 3.21764,2.43036 28.06885,7.70182 c 15.43789,4.24456 45.2867,12.49404 66.37257,18.3132 l 38.26951,10.57717 1.67729,-1.02692 c 0.9242,-0.54766 1.67728,-1.12959 1.67728,-1.23227 -0.0342,-0.51347 -28.06888,-9.34487 -39.87833,-12.59674 -11.56985,-3.18345 -73.6294,-20.2986 -87.83497,-24.23508 -6.50375,-1.81421 -12.22023,-3.28611 -12.66521,-3.28611 -0.47924,0 -1.16384,0.20539 -1.50615,0.47924 z"
     id="path8" />
  <path
     style="fill:none;stroke:#000000;stroke-width:0.0485154mm"
     d="m 200.49931,-326.98085 c 0,1.60882 0.23962,2.60148 0.95845,4.1761 0.5477,1.12959 14.47942,26.39156 30.94421,56.13772 26.56273,47.95665 48.05937,86.94497 60.86149,110.39273 2.29343,4.24456 4.21033,7.73605 4.24457,7.77028 0.0342,0.0342 0.71884,0.17115 1.50612,0.30807 l 1.43766,0.23962 v -2.63571 -2.63575 l -21.12009,-38.06411 c -19.95625,-36.0103 -58.53383,-105.84013 -69.28215,-125.4541 l -4.92917,-9.00257 -2.29342,-1.67728 -2.32767,-1.71151 z"
     id="path9" />
  <path
     style="fill:none;stroke:#000000;stroke-width:0.0485154mm"
     d="m 195.0567,-327.08354 c -1.84844,1.43766 -2.46459,2.22497 -3.90225,4.86069 -7.59913,14.13713 -25.53582,46.89553 -40.28909,73.52671 -33.10071,59.80036 -50.76355,91.87415 -51.721997,93.928 -0.718843,1.47189 -0.992683,2.60148 -0.992683,3.86802 v 1.81418 h 1.163826 c 0.958454,0 1.369224,-0.23959 2.019594,-1.09533 0.7873,-1.02693 18.99783,-33.88803 63.73685,-114.77425 9.37909,-16.94403 20.53817,-37.13989 24.8512,-44.91018 l 7.83874,-14.1029 v -2.39612 c 0,-1.33498 -0.10269,-2.43033 -0.23961,-2.43033 -0.17116,0 -1.26653,0.78728 -2.46458,1.71151 z"
     id="path10" />
  <path
     style="fill:none;stroke:#000000;stroke-width:0.0485154mm"
     d="m 343.37664,-289.01944 -1.71152,1.06115 -3.86802,13.38405 c -2.12228,7.35951 -10.78254,37.37948 -19.23744,66.74909 l -15.3694,53.33085 v 3.32033 c 0,3.42303 0.23961,4.14187 1.43766,4.14187 1.16385,0 -0.27385,4.82647 22.83161,-75.47785 10.54295,-36.72911 13.45252,-47.10091 15.43787,-54.97388 1.335,-5.203 2.73844,-11.63831 2.73844,-12.32292 0,-0.47921 -0.41077,-0.34228 -2.2592,0.78731 z"
     id="path11" />
  <path
     style="fill:none;stroke:#000000;stroke-width:0.0485154mm"
     d="m 50.810163,-261.84057 c -0.342305,41.93213 -1.232292,112.00157 -1.608827,125.41985 -0.17115,6.46954 -0.239612,11.8437 -0.17115,11.91216 0.06846,0.0685 1.19806,-0.44501 2.498814,-1.12962 l 2.36189,-1.30071 0.239612,-21.94167 c 0.581913,-56.24039 0.889987,-86.91074 0.958449,-102.04056 l 0.102689,-16.43053 -1.779974,-10.44025 c -0.958449,-5.7507 -1.916898,-10.81677 -2.088051,-11.26178 -0.171151,-0.51345 -0.376532,10.13218 -0.513452,27.21311 z"
     id="path12" />
  <path
     style="fill:none;stroke:#000000;stroke-width:0.0485154mm"
     d="m 54.507034,-288.16367 c 0.102693,0.54766 0.889991,5.20299 1.711516,10.37177 0.85576,5.16879 1.882666,10.64563 2.259202,12.15177 0.376532,1.50612 4.997628,17.52591 10.234865,35.59951 10.200633,35.15454 21.565093,74.4167 22.694697,78.45588 l 0.684601,2.4988 h 1.677288 1.643054 v -2.19072 c 0,-1.30077 -0.41076,-3.79957 -0.992675,-6.05877 -0.547686,-2.15651 -8.14682,-28.71923 -16.909773,-59.01306 -22.386627,-77.36049 -20.640884,-71.43867 -21.496641,-72.12326 -1.095368,-0.92423 -1.677285,-0.78731 -1.506134,0.30808 z"
     id="path14" />
  <path
     style="fill:none;stroke:#000000;stroke-width:0.0485154mm"
     d="m 347.24466,-283.26875 c -0.13692,0.47923 -1.16382,5.40838 -2.2592,10.95369 l -2.01959,10.09795 0.27384,22.93431 c 0.17115,12.63099 0.47924,39.87831 0.68462,60.58766 0.17115,20.70935 0.445,40.90522 0.54769,44.87594 l 0.20536,7.22259 1.84846,0.88997 c 1.0269,0.51347 2.01956,0.92424 2.19072,0.92424 0.23961,0 0.30808,-4.62112 0.17115,-13.62367 -0.17115,-11.53562 -1.09535,-109.19468 -1.30074,-136.81855 -0.0342,-4.89496 -0.17115,-8.52336 -0.34231,-8.04413 z"
     id="path15" />
  <path
     style="fill:none;stroke:#000000;stroke-width:0.0485154mm"
     d="m 104.82559,-146.0052 -6.503758,0.17116 2.053818,0.99266 c 1.12961,0.51346 3.18343,1.40346 4.55264,1.95116 l 2.49881,0.99266 h 92.11377 92.14801 l 4.27878,-1.60882 c 4.17611,-1.57462 4.24454,-1.64308 3.11495,-1.9169 -0.65038,-0.13692 -4.89492,-0.41076 -9.41332,-0.58192 -8.59183,-0.30805 -173.51346,-0.34228 -184.8437,0 z"
     id="path24" />
  <path
     style="fill:none;stroke:#000000;stroke-width:0.0485154mm"
     d="m 83.773955,-140.11759 c -4.621096,2.63572 -13.931743,7.80452 -20.709345,11.50139 -6.777598,3.66263 -12.665214,6.98297 -13.110207,7.42797 -0.753067,0.68462 -0.787298,0.85577 -0.410762,2.19074 0.205381,0.78731 0.581913,1.50613 0.821525,1.60882 0.273843,0.1027 1.471904,-0.27385 2.738426,-0.85574 2.259202,-1.0269 14.855953,-7.80451 25.227741,-13.58944 3.114955,-1.71153 8.215275,-4.48417 11.36446,-6.12722 5.613776,-2.90959 5.716464,-2.97806 5.716464,-4.07341 0,-1.19805 -0.547681,-1.84844 -2.156509,-2.53306 -0.513455,-0.23962 -0.992679,-0.41077 -1.02691,-0.41077 -0.03423,0.0342 -3.833794,2.19077 -8.454883,4.86072 z"
     id="path25" />
  <path
     style="fill:none;stroke:#000000;stroke-width:0.0485154mm"
     d="m 303.9091,-143.36946 c -1.91689,1.5746 -2.08804,1.43767 21.35972,14.44518 11.98059,6.64069 21.97584,11.98062 22.24969,11.87793 0.71885,-0.27385 1.60882,-2.19073 1.4719,-3.21765 -0.1027,-0.78731 -0.75305,-1.26653 -5.06608,-3.59418 -2.73844,-1.47192 -10.88523,-5.9903 -18.14208,-9.99526 -15.78018,-8.76293 -17.66285,-9.68717 -19.57974,-9.96101 -1.16382,-0.17117 -1.64305,-0.0685 -2.29341,0.44499 z"
     id="path26" />
  <path
     style="fill:none;stroke:#000000;stroke-width:0.0485154mm"
     d="m 98.15068,-141.41833 c 0,0.71882 0.376537,1.60882 0.992683,2.4646 0.54769,0.71881 9.516027,10.2006 19.922047,21.01737 10.44023,10.85102 27.28155,28.548103 37.44796,39.364874 10.1664,10.81679 23.51622,24.74854 29.67768,30.978431 l 11.1933,11.295996 0.0342,-2.669948 v -2.669967 l -8.11257,-8.626029 c -4.44995,-4.758021 -16.67017,-17.628614 -27.11041,-28.650798 -28.75347,-30.293809 -35.97606,-37.927179 -46.48476,-49.120479 -5.27148,-5.64799 -10.13218,-10.7483 -10.74833,-11.36446 -0.68461,-0.65038 -2.29343,-1.50616 -3.97071,-2.12228 l -2.841121,-1.0269 z"
     id="path27" />
  <path
     style="fill:none;stroke:#000000;stroke-width:0.0485154mm"
     d="m 297.67918,-141.21297 c -1.26654,0.47923 -2.84113,1.19808 -3.52571,1.57462 -0.71885,0.37653 -6.50378,6.33259 -14.13714,14.51363 -12.22023,13.14446 -40.25485,42.616743 -67.46794,70.856771 l -12.35715,12.83635 v 3.080747 l -0.0342,3.080719 2.9438,-2.909595 c 6.50377,-6.401044 26.97349,-27.555379 37.61912,-38.851375 6.19569,-6.606458 18.58707,-19.682436 27.5554,-29.095787 30.08844,-31.62879 32.17649,-33.888 32.17649,-35.08608 0,-0.99266 -0.34228,-0.99266 -2.77264,0 z"
     id="path28" />
  <path
     style="fill:none;stroke:#000000;stroke-width:0.0485154mm"
     d="m 55.568176,-116.32751 c -1.711517,0.85577 -2.259203,1.26651 -1.882667,1.4719 5.168775,2.84113 133.566681,74.690525 136.887011,76.607427 l 1.54037,0.889995 -2.12228,-2.361894 c -1.1296,-1.334969 -3.83379,-4.107644 -5.99031,-6.195689 -3.08073,-3.012262 -4.48416,-4.107614 -6.94875,-5.442622 -5.33993,-2.875323 -41.79521,-23.139682 -68.63177,-38.166784 -24.098146,-13.520983 -50.318564,-28.103113 -50.455483,-28.068873 0,0.0343 -1.095372,0.58192 -2.396121,1.26654 z"
     id="path31" />
  <path
     style="fill:none;stroke:#000000;stroke-width:0.0485154mm"
     d="m 338.96091,-117.11482 c -0.65035,0.44501 -78.49008,44.122867 -107.14085,60.108429 l -13.69214,7.667597 -5.06608,4.963407 c -5.7507,5.647998 -6.67491,6.811814 -4.31301,5.442613 3.76533,-2.190742 60.07419,-33.716874 109.94775,-61.546096 l 25.94659,-14.47944 -2.43036,-1.30073 c -1.33499,-0.75309 -2.46459,-1.33501 -2.49881,-1.33501 -0.0685,0 -0.37655,0.20538 -0.75309,0.47923 z"
     id="path32" />
</svg>
