<?xml version="1.0" encoding="UTF-8"?>
<svg xmlns="http://www.w3.org/2000/svg" xmlns:xlink="http://www.w3.org/1999/xlink" width="299.992mm" height="341.460mm" viewBox="49.003986 -376.729889 299.992035 341.459808">
    <path transform="matrix(0.970308,0,0,-0.970308,-2.486435,-417.109253)" style="stroke:#000000;stroke-width:0.05mm;fill:none" d="M206.375015,-41.98053C205.916397,-42.262756,205.84584,-45.12027,205.740021,-63.464691L205.634186,-84.5961L206.657242,-85.301666L207.680298,-86.04248L208.985565,-85.125275L210.290848,-84.17276L210.185013,-63.253052C210.079178,-40.287201,210.220291,-41.627747,207.962509,-41.627747C207.398071,-41.627747,206.657242,-41.804138,206.375015,-41.98053z"/>
    <path transform="matrix(0.970308,0,0,-0.970308,-2.486435,-417.109253)" style="stroke:#000000;stroke-width:0.05mm;fill:none" d="M196.67363,-46.637207C186.090286,-52.916656,165.629181,-64.558319,119.415283,-90.593323C63.57056,-122.025818,63.888062,-121.849426,63.993893,-121.955261C64.064445,-122.025818,68.121391,-120.967499,73.06028,-119.626923L82.056114,-117.157501L103.716667,-104.845551C122.202232,-94.332764,195.403625,-52.987213,200.977509,-49.882751L202.847229,-48.859711L202.847229,-45.931641C202.847229,-44.344147,202.811951,-43.038879,202.776688,-43.074158C202.706131,-43.074158,199.989731,-44.69693,196.67363,-46.637207z"/>
    <path transform="matrix(0.970308,0,0,-0.970308,-2.486435,-417.109253)" style="stroke:#000000;stroke-width:0.05mm;fill:none" d="M213.324738,-43.63858C213.183624,-43.744415,213.077789,-45.014435,213.077789,-46.425537L213.077789,-49.000824L216.711411,-51.011658C218.686966,-52.140533,241.652802,-65.087494,267.758362,-79.833588C293.863922,-94.579712,319.651978,-109.149437,325.084747,-112.218597L334.997803,-117.79248L344.593353,-120.791107C349.88501,-122.449158,354.330017,-123.824982,354.435852,-123.824982C354.929749,-123.824982,348.509186,-120.085541,331.787537,-110.595833C322.297791,-105.198334,305.681976,-95.779144,294.922241,-89.60553C284.162506,-83.467194,261.761139,-70.767212,245.180573,-61.383331C228.600021,-51.99942,214.700577,-44.132477,214.277237,-43.85025C213.889175,-43.603302,213.430573,-43.497467,213.324738,-43.63858z"/>
    <path transform="matrix(0.970308,0,0,-0.970308,-2.486435,-417.109253)" style="stroke:#000000;stroke-width:0.05mm;fill:none" d="M177.800018,-71.049438C172.085007,-72.672211,168.521957,-75.988312,169.121674,-79.198608C169.368622,-80.362762,169.298065,-80.468597,167.710571,-81.385803C164.782516,-83.114441,164.006393,-83.996368,163.794739,-85.760254C163.583069,-87.594696,164.28862,-89.323303,165.488068,-89.958313C166.087784,-90.275818,166.758072,-90.099426,169.439178,-88.758881C174.166397,-86.46582,174.413345,-86.218872,171.802795,-86.359985C170.532791,-86.430542,169.686127,-86.359985,169.686127,-86.148315C169.686127,-85.336914,179.916672,-82.09137,180.516403,-82.655823C180.622238,-82.796936,180.234177,-83.431915,179.599182,-84.137482C178.999451,-84.843048,178.505569,-85.548584,178.505569,-85.724976C178.505569,-86.324707,176.283066,-88.229706,173.884186,-89.640808C172.543625,-90.452209,171.485291,-91.157776,171.555847,-91.263611C171.626404,-91.334137,172.825851,-91.157776,174.201675,-90.840271C182.527237,-89.111664,187.960007,-84.737213,186.125565,-81.209442C185.349457,-79.727753,185.384735,-79.657196,186.795853,-78.10498C187.713074,-77.117218,188.030563,-76.44693,188.030563,-75.494415C188.030563,-73.836365,186.936951,-71.825531,185.949173,-71.684418C185.173065,-71.578583,181.363068,-73.624695,179.563904,-75.106384L178.681961,-75.81192L180.093063,-75.494415C181.892227,-75.071106,182.386124,-75.071106,182.386124,-75.459137C182.386124,-76.02359,178.576126,-77.646362,176.741684,-77.858032L175.013062,-78.069702L175.224731,-76.693878C175.506958,-74.718323,175.824463,-74.259705,177.976395,-72.672211C180.904449,-70.484985,180.869186,-70.202759,177.800018,-71.049438z"/>
    <path transform="matrix(0.970308,0,0,-0.970308,-2.486435,-417.109253)" style="stroke:#000000;stroke-width:0.05mm;fill:none" d="M243.416687,-73.201385C240.523911,-75.60025,236.114182,-79.904144,235.690842,-80.715546C235.020569,-81.950256,235.796677,-83.467194,237.490021,-84.349152C238.266129,-84.737213,241.688065,-85.619141,245.110016,-86.289429C254.423355,-88.123871,254.63501,-88.194427,257.77475,-91.016663C259.715027,-92.74527,260.808624,-93.486084,261.478912,-93.486084C262.643066,-93.486084,263.525024,-92.639435,263.525024,-91.510529C263.525024,-90.663879,263.560303,-90.663879,265.818085,-90.875549C267.617249,-91.051941,268.287506,-90.981384,268.993073,-90.522766C270.016144,-89.852478,270.192505,-88.229706,269.310577,-87.347748C268.640289,-86.642212,265.959198,-85.901367,262.113892,-85.336914C258.833069,-84.878326,258.656677,-84.737213,255.128906,-80.503876C254.282242,-79.480804,253.365021,-78.669434,253.082794,-78.669434C252.306686,-78.669434,251.177795,-79.974701,250.930847,-81.174164C250.825012,-81.738586,250.613358,-82.30304,250.472244,-82.373596C249.837234,-82.761658,242.711121,-80.962494,242.711121,-80.433319C242.711121,-80.292206,243.593079,-79.480804,244.651398,-78.669434C246.626968,-77.152496,248.002792,-75.353333,248.002792,-74.294983C248.002792,-73.483582,246.415298,-71.966644,245.568634,-71.966644C245.215851,-71.966644,244.228073,-72.531097,243.416687,-73.201385z"/>
    <path transform="matrix(0.970308,0,0,-0.970308,-2.486435,-417.109253)" style="stroke:#000000;stroke-width:0.05mm;fill:none" d="M153.599457,-80.574432C152.999725,-80.856659,151.02417,-82.479431,149.189728,-84.208038C147.355286,-85.936646,144.356674,-88.582489,142.486954,-90.02887C137.830292,-93.733032,136.877792,-94.720825,136.877792,-95.990814C136.877792,-98.248596,139.453064,-98.17804,142.875015,-95.849701C144.568344,-94.685547,152.823349,-87.629974,155.857239,-84.80777C157.938629,-82.832214,158.256119,-81.562195,156.915573,-80.644989C155.963058,-79.974701,155.045837,-79.939423,153.599457,-80.574432z"/>
    <path transform="matrix(0.970308,0,0,-0.970308,-2.486435,-417.109253)" style="stroke:#000000;stroke-width:0.05mm;fill:none" d="M201.965286,-87.030273C195.615295,-88.511932,58.45528,-126.611938,58.031948,-127.035278C57.432224,-127.634979,58.349449,-128.552216,60.395561,-129.363586L62.371117,-130.139709L73.27195,-127.176392C83.855286,-124.318878,150.424454,-106.044983,182.738907,-97.154999C199.848618,-92.427765,199.919174,-92.392487,203.729187,-89.076385C205.105011,-87.876923,205.105011,-87.806366,204.470016,-87.3125C203.764465,-86.783325,203.270569,-86.712769,201.965286,-87.030273z"/>
    <path transform="matrix(0.970308,0,0,-0.970308,-2.486435,-417.109253)" style="stroke:#000000;stroke-width:0.05mm;fill:none" d="M210.784729,-87.277222C210.185013,-87.700531,210.396683,-87.947479,213.465851,-90.24054L216.781952,-92.74527L245.709732,-100.68277C261.620026,-105.05722,292.382233,-113.559143,314.113342,-119.556374L353.553925,-130.457214L355.282532,-129.398865C356.235016,-128.834442,357.011139,-128.234711,357.011139,-128.128876C356.975861,-127.599701,328.083344,-118.498047,315.912506,-115.146667C303.988617,-111.865807,240.030014,-94.226929,225.38974,-90.169983C218.686966,-88.300262,212.795563,-86.783325,212.33696,-86.783325C211.843063,-86.783325,211.137512,-86.994995,210.784729,-87.277222z"/>
    <path transform="matrix(0.970308,0,0,-0.970308,-2.486435,-417.109253)" style="stroke:#000000;stroke-width:0.05mm;fill:none" d="M209.197235,-92.886383C209.197235,-94.544434,209.444183,-95.567474,210.185013,-97.190277C210.749466,-98.354431,225.107513,-124.389427,242.076126,-155.045837C269.451691,-204.469986,291.60614,-244.651382,304.800018,-268.81665C307.163635,-273.191101,309.139191,-276.789429,309.174469,-276.824707C309.209747,-276.859985,309.915314,-277.001099,310.726685,-277.142212L312.208344,-277.38916L312.208344,-274.672791L312.208344,-271.95639L290.441956,-232.727493C269.875031,-195.615265,230.116959,-123.64859,219.039734,-103.434418L213.959732,-94.156372L211.59613,-92.427765L209.197235,-90.663879L209.197235,-92.886383z"/>
    <path transform="matrix(0.970308,0,0,-0.970308,-2.486435,-417.109253)" style="stroke:#000000;stroke-width:0.05mm;fill:none" d="M203.588074,-92.780548C201.683075,-94.262207,201.048065,-95.073608,199.566406,-97.789978C191.734741,-112.359711,173.249176,-146.120544,158.044449,-173.56665C123.93084,-235.196945,105.727509,-268.252197,104.739731,-270.368896C103.998894,-271.885834,103.716667,-273.049988,103.716667,-274.355286L103.716667,-276.224976L104.916107,-276.224976C105.903893,-276.224976,106.327232,-275.978058,106.997513,-275.09613C107.808899,-274.037781,126.576683,-240.171112,172.684738,-156.809723C182.350845,-139.347198,193.851395,-118.533333,198.296402,-110.525269L206.375015,-95.990814L206.375015,-93.521362C206.375015,-92.145538,206.26918,-91.016663,206.128067,-91.016663C205.951675,-91.016663,204.822784,-91.828033,203.588074,-92.780548z"/>
    <path transform="matrix(0.970308,0,0,-0.970308,-2.486435,-417.109253)" style="stroke:#000000;stroke-width:0.05mm;fill:none" d="M356.446686,-132.00943L354.6828,-133.103058L350.696411,-146.896667C348.509186,-154.481384,339.583923,-185.419983,330.8703,-215.688324L315.030579,-270.651123L315.030579,-274.073059C315.030579,-277.60083,315.277527,-278.341675,316.512238,-278.341675C317.7117,-278.341675,316.230011,-283.315826,340.042511,-200.554153C350.908081,-162.701111,353.906677,-152.011932,355.952789,-143.898041C357.328644,-138.535828,358.775024,-131.903595,358.775024,-131.198029C358.775024,-130.704163,358.351685,-130.845276,356.446686,-132.00943z"/>
    <path transform="matrix(0.970308,0,0,-0.970308,-2.486435,-417.109253)" style="stroke:#000000;stroke-width:0.05mm;fill:none" d="M54.927505,-160.019989C54.574726,-203.235275,53.657505,-275.448883,53.269447,-289.277771C53.09306,-295.945282,53.022503,-301.483887,53.09306,-301.554443C53.163616,-301.625,54.327782,-301.095825,55.668339,-300.390259L58.102505,-299.049744L58.349449,-276.436646C58.949169,-218.475266,59.26667,-186.866394,59.337227,-171.27359L59.443058,-154.340271L57.608616,-143.580536C56.620838,-137.65387,55.63306,-132.43277,55.456669,-131.974152C55.280281,-131.444977,55.068615,-142.416382,54.927505,-160.019989z"/>
    <path transform="matrix(0.970308,0,0,-0.970308,-2.486435,-417.109253)" style="stroke:#000000;stroke-width:0.05mm;fill:none" d="M285.926422,-132.468048C285.432526,-132.926666,285.044464,-133.561646,285.044464,-133.87915C285.044464,-135.043335,286.17334,-136.524994,288.219452,-138.112488C289.383636,-139.029724,290.230286,-139.911652,290.124451,-140.123322C289.806976,-140.652496,283.2453,-143.721649,280.352509,-144.709442L277.953644,-145.520813L276.366119,-143.651093C275.448914,-142.592773,274.461121,-141.81665,274.073059,-141.81665C272.873627,-141.81665,271.391968,-142.804443,270.93335,-143.933319C270.368896,-145.273865,270.651123,-146.014709,273.402802,-150.636108C274.496399,-152.470551,275.94281,-154.975281,276.577789,-156.209991C277.212799,-157.444702,278.165283,-158.75,278.623901,-159.138031C280.5289,-160.61972,282.927795,-159.526093,282.927795,-157.162476C282.927795,-156.104156,282.328064,-153.952209,281.37558,-151.659149C281.199188,-151.235809,281.904755,-150.8125,284.762238,-149.613037C286.773071,-148.766388,290.97113,-146.826111,294.11084,-145.309143C299.437805,-142.733887,299.861145,-142.45166,300.143341,-141.393311C300.778351,-138.923889,300.037506,-138.147766,293.017242,-133.914429C288.67807,-131.268585,287.372803,-131.021667,285.926422,-132.468048z"/>
    <path transform="matrix(0.970308,0,0,-0.970308,-2.486435,-417.109253)" style="stroke:#000000;stroke-width:0.05mm;fill:none" d="M58.737503,-132.891388C58.843338,-133.455811,59.654728,-138.253601,60.501392,-143.580536C61.383339,-148.907501,62.441669,-154.551941,62.829727,-156.104156C63.217781,-157.656372,67.980286,-174.166382,73.377785,-192.793045C83.890564,-229.023331,95.602783,-269.486938,96.766953,-273.649719L97.472504,-276.224976L99.201118,-276.224976L100.894447,-276.224976L100.894447,-273.967224C100.894447,-272.626648,100.471123,-270.051392,99.871399,-267.723053C99.306953,-265.500549,91.475281,-238.125,82.444176,-206.90416C59.372505,-127.176392,61.171669,-133.279419,60.289726,-132.573883C59.160839,-131.621368,58.561115,-131.762482,58.737503,-132.891388z"/>
    <path transform="matrix(0.970308,0,0,-0.970308,-2.486435,-417.109253)" style="stroke:#000000;stroke-width:0.05mm;fill:none" d="M360.433075,-137.936096C360.291962,-138.429993,359.233643,-143.509979,358.104736,-149.224976L356.023346,-159.631927L356.305573,-183.268036C356.481964,-196.285553,356.799469,-224.366653,357.011139,-245.709717C357.187531,-267.052795,357.469757,-287.866669,357.575592,-291.958893L357.787231,-299.402496L359.692261,-300.319702C360.75058,-300.848877,361.773621,-301.272217,361.950012,-301.272217C362.19696,-301.272217,362.267517,-296.509705,362.126404,-287.231659C361.950012,-275.343048,360.997528,-174.695557,360.785858,-146.226379C360.75058,-141.181641,360.609467,-137.4422,360.433075,-137.936096z"/>
    <path transform="matrix(0.970308,0,0,-0.970308,-2.486435,-417.109253)" style="stroke:#000000;stroke-width:0.05mm;fill:none" d="M109.890282,-144.95639C104.880836,-146.191101,98.636673,-154.693054,97.860565,-161.360535C97.155006,-167.287201,101.353073,-172.402496,104.633904,-169.580261L105.586403,-168.76889L104.775009,-165.523315C104.034172,-162.630554,103.998894,-162.066101,104.386963,-160.337494C104.669167,-159.102753,105.339447,-157.69165,106.327232,-156.351105C108.267509,-153.74054,111.54834,-150.918335,112.324463,-151.200531C112.606667,-151.306366,113.276947,-152.223602,113.735573,-153.211365C114.511673,-154.798889,114.723343,-156.139435,115.358337,-163.230255C116.310837,-174.060547,117.192787,-177.447205,119.556396,-179.704987C122.131683,-182.174438,123.93084,-180.728058,128.023071,-173.002228C129.469452,-170.285828,132.291672,-165.593872,134.302505,-162.524719C138.500565,-156.174713,139.170837,-154.834167,138.641678,-153.811096C138.18306,-152.964447,137.195282,-152.399994,136.101669,-152.399994C134.020294,-152.399994,131.480286,-155.363312,125.095009,-165.311646C123.084183,-168.451385,122.590286,-169.015839,122.378616,-168.416107C122.237511,-168.063324,121.7789,-164.711945,121.35556,-161.007782C120.967506,-157.268311,120.403061,-153.3172,120.085564,-152.188324C119.062508,-148.166656,117.263344,-146.085266,114.053062,-145.132751C112.289177,-144.603607,111.513062,-144.568329,109.890282,-144.95639z"/>
    <path transform="matrix(0.970308,0,0,-0.970308,-2.486435,-417.109253)" style="stroke:#000000;stroke-width:0.05mm;fill:none" d="M311.150024,-160.690277C305.540863,-161.819153,297.568085,-164.006378,295.416138,-164.994171C293.687531,-165.770264,292.981964,-168.028046,293.8992,-169.791931C294.146118,-170.215271,295.486694,-172.437775,296.897797,-174.695557C298.344177,-176.953339,299.508362,-178.893616,299.508362,-178.999451C299.508362,-179.069977,298.69696,-179.63443,297.744476,-180.234161C294.816406,-182.033325,293.793365,-184.467499,295.345581,-185.913879C296.333344,-186.831116,297.779755,-186.831116,300.425568,-185.913879L302.506958,-185.173035L303.388916,-186.196106C303.882813,-186.795837,304.835297,-188.242218,305.505585,-189.441666C307.340027,-192.757767,309.386139,-193.674988,311.255859,-192.016937C312.420013,-190.958603,311.714478,-187.536652,309.597809,-184.044159L308.363068,-181.998047L309.597809,-181.468872C311.679199,-180.586945,313.619476,-179.140533,314.183899,-178.117493C314.889465,-176.70639,314.818909,-175.118866,313.936951,-174.236938C312.91391,-173.213867,311.396973,-173.496094,307.90448,-175.295258L305.18808,-176.70639L303.353638,-173.531372C302.365845,-171.802765,301.625031,-170.144714,301.730865,-169.897766C301.8367,-169.650818,304.12973,-168.98056,307.340027,-168.310272C310.303345,-167.639984,313.301971,-166.89917,313.972229,-166.616943C316.547516,-165.558594,317.570587,-163.75943,316.618073,-161.924988C315.665588,-160.090546,314.960022,-159.914154,311.150024,-160.690277z"/>
    <path transform="matrix(0.970308,0,0,-0.970308,-2.486435,-417.109253)" style="stroke:#000000;stroke-width:0.05mm;fill:none" d="M185.314178,-189.229996C182.280289,-190.006104,179.528625,-191.593597,177.059174,-194.027771C174.51918,-196.532486,173.390289,-198.790268,173.002228,-202.353333C172.790573,-204.046661,172.86113,-204.399445,173.566681,-205.140274C174.025284,-205.634155,174.695572,-206.022217,175.04834,-206.022217C176.283066,-206.022217,177.694183,-204.999161,178.329178,-203.6586C179.916672,-200.130829,180.340012,-199.389999,181.327789,-198.190552C183.726685,-195.262497,188.31279,-194.239441,191.55835,-195.862213C193.42807,-196.814713,194.345291,-198.261108,194.627518,-200.659988C195.050842,-204.29361,193.392792,-206.551376,185.913895,-212.372223C178.2939,-218.334167,174.73085,-222.426376,172.64946,-227.541656C171.132507,-231.281113,171.626404,-233.644714,174.131119,-234.597214C175.154175,-234.985275,191.946396,-235.055832,197.661407,-234.703049C202.035843,-234.4561,202.847229,-233.997498,202.847229,-231.845551C202.847229,-230.1875,202.600296,-229.799438,200.977509,-229.129166C199.037231,-228.31778,194.027786,-228.10611,186.443069,-228.564713C182.209732,-228.811661,179.63446,-228.811661,179.422791,-228.599991C178.964172,-228.141388,181.327789,-224.684158,183.550293,-222.496933C184.502792,-221.544434,187.254456,-219.21611,189.618073,-217.311111C195.050842,-212.936661,197.096954,-210.925827,198.825562,-208.350555L200.201401,-206.269165L200.307236,-201.753601C200.413071,-197.449707,200.377792,-197.132217,199.49585,-195.368332C198.261124,-192.89888,196.109177,-190.711655,193.921951,-189.794434C191.734741,-188.841934,187.818909,-188.594986,185.314178,-189.229996z"/>
    <path transform="matrix(0.970308,0,0,-0.970308,-2.486435,-417.109253)" style="stroke:#000000;stroke-width:0.05mm;fill:none" d="M227.47113,-191.523041C223.061401,-192.934158,221.156403,-194.698044,218.757507,-199.566376C216.041122,-204.999161,215.723633,-206.621933,215.723633,-215.194443C215.723633,-223.343613,215.864731,-224.225555,217.699188,-228.10611C219.639465,-232.198334,223.237793,-235.232224,227.47113,-236.361099C228.317795,-236.572769,229.235016,-236.854996,229.517242,-236.960831C229.905289,-237.101944,230.011124,-236.572769,230.011124,-233.962219L230.011124,-230.822495L228.458908,-230.222778C223.449463,-228.31778,221.262238,-222.743881,221.615021,-212.971939C221.791397,-209.020828,221.967789,-207.856659,222.849731,-205.246109C224.225571,-201.330276,225.954178,-198.896103,228.247238,-197.837769L229.975845,-197.026382L230.011124,-193.921936C230.011124,-192.228607,229.905289,-190.852768,229.764175,-190.888046C229.587799,-190.888046,228.564743,-191.170273,227.47113,-191.523041z"/>
    <path transform="matrix(0.970308,0,0,-0.970308,-2.486435,-417.109253)" style="stroke:#000000;stroke-width:0.05mm;fill:none" d="M234.950012,-193.780823L234.950012,-196.814713L236.184738,-197.414444C238.901123,-198.684433,241.546967,-203.023605,242.570023,-207.821381C243.416687,-211.80777,243.099182,-219.815826,241.935013,-223.167221C240.770844,-226.5186,239.148071,-228.741104,236.855011,-230.222778L234.950012,-231.457489L234.950012,-234.279724L234.950012,-237.137222L236.396408,-236.890274C242.887512,-235.796661,247.650009,-229.623047,249.096405,-220.450821C249.343353,-218.898605,249.41391,-215.864716,249.308075,-212.901382C249.096405,-207.256943,248.143906,-203.34111,245.991959,-199.248886C243.87529,-195.227219,239.641968,-191.699432,236.114182,-190.993881L234.950012,-190.746933L234.950012,-193.780823z"/>
    <path transform="matrix(0.970308,0,0,-0.970308,-2.486435,-417.109253)" style="stroke:#000000;stroke-width:0.05mm;fill:none" d="M69.320839,-213.67749C68.544724,-214.41832,68.721115,-215.582489,70.590836,-221.332779C71.366951,-223.802216,71.931396,-225.918884,71.86084,-226.024719C71.755005,-226.095276,70.978897,-225.989441,70.167503,-225.742493C67.098335,-224.931107,65.193336,-225.460266,63.217781,-227.68277C61.912502,-229.164444,61.383339,-230.893051,61.383339,-233.609436C61.383339,-235.937775,62.124172,-239.99472,63.041393,-242.60527C64.417229,-246.521103,67.168892,-249.061111,68.333061,-247.473602C69.003342,-246.521103,68.932785,-245.709717,67.698059,-241.053055C66.00473,-234.632492,65.898895,-233.926941,66.145836,-232.26889C66.53389,-229.517212,67.874451,-229.693604,71.825562,-233.115555C75.423897,-236.220001,76.658615,-237.066666,77.575836,-237.066666C78.704727,-237.066666,79.128059,-235.83194,78.916397,-233.397766C78.704727,-231.457489,76.058891,-222.144165,74.541946,-218.016663C73.871674,-216.252777,72.425285,-213.748047,71.825562,-213.360001C71.155281,-212.901382,69.920563,-213.042496,69.320839,-213.67749z"/>
    <path transform="matrix(0.970308,0,0,-0.970308,-2.486435,-417.109253)" style="stroke:#000000;stroke-width:0.05mm;fill:none" d="M344.416962,-232.37471C341.030304,-234.244446,338.737244,-240.347488,339.125305,-246.485825C339.336975,-250.154724,340.395294,-252.165558,342.653076,-253.259155C344.593353,-254.21167,345.228363,-254.176392,345.863342,-253.188614C346.357239,-252.412491,347.133362,-248.496658,347.133362,-246.909164C347.098083,-246.097778,347.062805,-246.133057,345.969177,-247.403046C345.334198,-248.108612,344.66391,-248.708328,344.416962,-248.708328C343.323364,-248.708328,343.640869,-243.381378,345.051971,-238.019165C345.969177,-234.561935,349.003082,-238.407211,349.602814,-243.804718C349.955566,-246.979721,349.708649,-249.837219,348.403351,-256.92804C347.38031,-262.290283,347.274475,-264.583313,347.909454,-265.218323C348.615021,-265.923889,349.849731,-265.712219,350.625854,-264.759705C352.248627,-262.678345,353.271698,-254.21167,353.060028,-244.757217C352.918915,-238.548325,352.883636,-238.230835,351.931122,-236.078888C350.09668,-232.127777,347.38031,-230.751938,344.416962,-232.37471z"/>
    <path transform="matrix(0.970308,0,0,-0.970308,-2.486435,-417.109253)" style="stroke:#000000;stroke-width:0.05mm;fill:none" d="M75.494446,-242.711105C74.68306,-243.522491,74.647781,-243.910553,75.176949,-245.956665C75.600281,-247.473602,75.600281,-247.473602,71.684448,-255.234726C69.56778,-259.503326,67.662781,-263.595551,67.451118,-264.336365C66.604446,-267.440826,68.227226,-268.81665,72.778061,-268.81665C75.917786,-268.81665,77.787506,-268.146393,78.105003,-266.94696C78.422508,-265.818054,78.38723,-265.712219,77.611115,-264.936096C77.081947,-264.406921,76.446953,-264.23053,74.965286,-264.23053C73.906952,-264.23053,73.025002,-264.160004,73.025002,-264.054169C73.025002,-263.701385,74.506668,-260.244141,76.341118,-256.363586L78.316673,-252.165558L79.551392,-253.259155C80.25695,-253.858887,81.138893,-254.352768,81.491669,-254.352768C82.479446,-254.352768,83.608337,-253.118057,83.608337,-252.024445C83.608337,-250.295822,80.010002,-244.263336,78.105003,-242.746384C76.940842,-241.829163,76.376396,-241.829163,75.494446,-242.711105z"/>
    <path transform="matrix(0.970308,0,0,-0.970308,-2.486435,-417.109253)" style="stroke:#000000;stroke-width:0.05mm;fill:none" d="M110.59584,-279.399994L103.893059,-279.576385L106.009727,-280.599426C107.173897,-281.128601,109.290573,-282.045837,110.701683,-282.610291L113.276947,-283.633331L208.209457,-283.633331L303.177246,-283.633331L307.586975,-281.975281C311.890869,-280.352478,311.961395,-280.281921,310.797241,-279.999725C310.126953,-279.858612,305.752533,-279.576385,301.095856,-279.399994C292.241119,-279.08252,122.272789,-279.047241,110.59584,-279.399994z"/>
    <path transform="matrix(0.970308,0,0,-0.970308,-2.486435,-417.109253)" style="stroke:#000000;stroke-width:0.05mm;fill:none" d="M88.900009,-285.467773C84.137505,-288.184143,74.541946,-293.511108,67.556946,-297.321106C60.571949,-301.095825,54.504169,-304.517761,54.045559,-304.976379C53.269447,-305.681946,53.234169,-305.858337,53.622227,-307.234161C53.833893,-308.045563,54.221947,-308.786377,54.468891,-308.892212C54.751114,-308.998047,55.985836,-308.609985,57.291115,-308.010284C59.61945,-306.951965,72.601669,-299.966949,83.29084,-294.005005C86.501114,-292.241089,91.757507,-289.383606,95.003059,-287.690277C100.78862,-284.69165,100.894447,-284.621094,100.894447,-283.492218C100.894447,-282.257507,100.330009,-281.587219,98.671951,-280.881653C98.142784,-280.634705,97.648895,-280.458313,97.613617,-280.458313C97.578339,-280.493591,93.662506,-282.716125,88.900009,-285.467773z"/>
    <path transform="matrix(0.970308,0,0,-0.970308,-2.486435,-417.109253)" style="stroke:#000000;stroke-width:0.05mm;fill:none" d="M315.771423,-282.116394C313.795868,-283.739166,313.619476,-283.598053,337.78476,-297.003601C350.131958,-303.847504,360.433075,-309.35083,360.715302,-309.244995C361.456146,-308.962769,362.373352,-306.987244,362.232239,-305.928894C362.126404,-305.117493,361.456146,-304.623596,357.011139,-302.224731C354.188904,-300.707764,345.792816,-296.051117,338.313904,-291.923615C322.050842,-282.892517,320.110565,-281.940002,318.13501,-281.657776C316.935577,-281.481384,316.441681,-281.587219,315.771423,-282.116394z"/>
    <path transform="matrix(0.970308,0,0,-0.970308,-2.486435,-417.109253)" style="stroke:#000000;stroke-width:0.05mm;fill:none" d="M103.716667,-284.127228C103.716667,-284.868042,104.104729,-285.785278,104.739731,-286.667236C105.304176,-287.408051,114.546951,-297.179993,125.2714,-308.327759C136.031113,-319.510834,153.387787,-337.749451,163.865295,-348.897217C174.342789,-360.045013,188.10112,-374.403076,194.451126,-380.823608L205.986954,-392.465271L206.022232,-389.713623L206.022232,-386.961945L197.661407,-378.07196C193.075287,-373.168335,180.481125,-359.9039,169.721405,-348.544434C140.088058,-317.323608,132.644455,-309.456665,121.814178,-297.920837C116.381393,-292.100006,111.371948,-286.843628,110.736954,-286.208618C110.031387,-285.53833,108.373337,-284.656372,106.64473,-284.021393L103.716667,-282.963074L103.716667,-284.127228z"/>
    <path transform="matrix(0.970308,0,0,-0.970308,-2.486435,-417.109253)" style="stroke:#000000;stroke-width:0.05mm;fill:none" d="M309.350861,-284.338867C308.045563,-284.832764,306.422791,-285.573608,305.717255,-285.96167C304.97641,-286.349731,299.014465,-292.488037,291.147522,-300.919434C278.553345,-314.466125,249.660843,-344.840271,221.615021,-373.944458L208.87973,-387.173615L208.87973,-390.348633L208.844452,-393.523621L211.878342,-390.524994C218.581131,-383.92807,239.677231,-362.126404,250.648621,-350.484741C257.033905,-343.676117,269.804474,-330.200012,279.047241,-320.498596C310.056396,-287.901947,312.208344,-285.573608,312.208344,-284.338867C312.208344,-283.315826,311.855591,-283.315826,309.350861,-284.338867z"/>
    <path transform="matrix(0.970308,0,0,-0.970308,-2.486435,-417.109253)" style="stroke:#000000;stroke-width:0.05mm;fill:none" d="M321.027802,-302.68335C320.251678,-303.459442,320.110565,-304.799988,320.745575,-305.434998C321.627533,-306.316956,320.075287,-306.916687,313.619476,-308.327759C306.387512,-309.915283,305.505585,-310.19751,304.059174,-311.43222C302.859741,-312.419983,302.612793,-314.536682,303.635864,-314.924744C304.694183,-315.348053,312.49057,-313.760559,320.886688,-311.467499C326.883911,-309.809448,328.118622,-308.398315,326.49585,-305.046936C325.790314,-303.529999,323.744202,-301.977783,322.544739,-301.977783C322.086121,-301.977783,321.415863,-302.295288,321.027802,-302.68335z"/>
    <path transform="matrix(0.970308,0,0,-0.970308,-2.486435,-417.109253)" style="stroke:#000000;stroke-width:0.05mm;fill:none" d="M101.141403,-307.975006C98.389732,-308.433594,96.237785,-309.421387,95.320564,-310.726685C94.368065,-312.031952,93.980003,-314.501404,94.509171,-315.877228C94.897232,-316.86499,94.967781,-316.900269,96.872787,-316.688599C97.966393,-316.582764,98.95417,-316.406372,99.060005,-316.300537C99.16584,-316.194733,99.060005,-315.524445,98.848343,-314.818909C98.49556,-313.654724,98.530838,-313.548889,99.412781,-313.160828C99.941948,-312.949158,102.093887,-312.772766,104.245842,-312.737488C107.738342,-312.737488,108.338074,-312.843323,110.207787,-313.690002C112.289177,-314.677795,113.700287,-314.854187,116.169731,-314.466125C117.651398,-314.183899,117.757233,-313.936951,116.769447,-312.561096C114.405838,-309.209717,107.068062,-307.093048,101.141403,-307.975006z"/>
    <path transform="matrix(0.970308,0,0,-0.970308,-2.486435,-417.109253)" style="stroke:#000000;stroke-width:0.05mm;fill:none" d="M59.831116,-309.98584C58.067226,-310.867798,57.502781,-311.291107,57.890839,-311.502777C63.217781,-314.430847,195.544739,-388.478882,198.966675,-390.454437L200.554184,-391.371674L198.366959,-388.9375C197.202789,-387.561676,194.415848,-384.704163,192.193344,-382.552216C189.018341,-379.447784,187.57196,-378.318909,185.031952,-376.943054C179.528625,-373.979736,141.957794,-353.095276,114.300011,-337.608337C89.464447,-323.673615,62.441669,-308.645264,62.30056,-308.680542C62.30056,-308.71582,61.171669,-309.280273,59.831116,-309.98584z"/>
    <path transform="matrix(0.970308,0,0,-0.970308,-2.486435,-417.109253)" style="stroke:#000000;stroke-width:0.05mm;fill:none" d="M351.895844,-309.174438C351.225586,-309.633057,271.003906,-354.647491,241.47641,-371.122223L227.365295,-379.024445L222.14418,-384.13974C216.217514,-389.960571,215.265015,-391.160004,217.699188,-389.748901C221.579742,-387.491119,279.611694,-355.000275,331.011414,-326.319458L357.751984,-311.396942L355.247253,-310.056396C353.871399,-309.280273,352.707245,-308.680542,352.671967,-308.680542C352.60141,-308.680542,352.283905,-308.892212,351.895844,-309.174438z"/>
    <path transform="matrix(0.970308,0,0,-0.970308,-2.486435,-417.109253)" style="stroke:#000000;stroke-width:0.05mm;fill:none" d="M208.668076,-312.419983C208.809174,-313.936951,208.985565,-315.312775,209.056122,-315.41861C209.126678,-315.524445,210.079178,-315.806671,211.208069,-316.053619C214.876953,-316.900269,216.958344,-318.487793,216.958344,-320.498596C216.958344,-322.297791,213.924454,-324.626099,210.537796,-325.402222C209.550018,-325.613892,209.550018,-325.64917,209.550018,-328.577209L209.550018,-331.540558L211.490295,-332.175568C214.700577,-333.16333,216.288071,-335.562225,215.123901,-337.714172C214.559464,-338.843048,213.818619,-339.266388,211.878342,-339.760284L210.149734,-340.183624L210.326126,-342.617798C210.573074,-345.828064,210.961121,-346.251404,213.289459,-345.686951C217.170013,-344.734436,220.27446,-342.335571,221.191681,-339.548615C222.073624,-336.867493,221.226959,-332.52832,219.251404,-329.494446C218.686966,-328.612488,218.686966,-328.577209,219.921677,-327.236664C224.9664,-321.698059,223.131958,-314.57196,215.723633,-311.079437C214.20668,-310.373901,212.689743,-309.98584,210.961121,-309.844727L208.385849,-309.633057L208.668076,-312.419983z"/>
    <path transform="matrix(0.970308,0,0,-0.970308,-2.486435,-417.109253)" style="stroke:#000000;stroke-width:0.05mm;fill:none" d="M200.377792,-310.444458C197.943619,-310.83252,194.027786,-312.208313,192.510849,-313.266663C189.794464,-315.136383,188.52446,-317.993896,188.841965,-321.451111C189.053619,-323.920563,190.358902,-325.966675,193.110565,-328.012787L195.050842,-329.494446L193.604462,-332.493042C192.193344,-335.491669,192.158066,-335.562225,192.581406,-337.431946C193.392792,-341.065552,197.202789,-344.099457,202.847229,-345.545837C205.563629,-346.251404,205.669464,-346.180847,205.669464,-342.476685L205.669464,-339.795563L202.917786,-338.878326C200.236679,-337.961121,198.613907,-336.938049,198.613907,-336.126678C198.613907,-335.350555,201.400848,-333.092773,203.341125,-332.31665L205.316681,-331.470001L205.316681,-329.282776C205.316681,-325.64917,205.140289,-325.4375,201.683075,-324.80249C197.978897,-324.132233,196.285568,-323.35611,195.615295,-322.050842C194.027786,-319.052216,196.356125,-317.006104,202.212234,-316.230011L203.940842,-315.983063L203.835007,-313.125549C203.729187,-309.880005,203.799728,-309.950562,200.377792,-310.444458z"/>
    <path transform="matrix(0.970308,0,0,-0.970308,-2.486435,-417.109253)" style="stroke:#000000;stroke-width:0.05mm;fill:none" d="M115.816963,-317.394165C114.758621,-317.535278,114.652786,-317.641113,114.652786,-318.734741C114.652786,-320.604431,113.453339,-321.204163,109.890282,-321.168884C107.632507,-321.168884,106.574173,-320.957214,104.633904,-320.181122C102.446671,-319.263885,101.917503,-319.193329,99.553894,-319.36972C98.142784,-319.475555,96.837509,-319.651947,96.731674,-319.757782C96.34362,-320.145844,99.201118,-322.756409,101.211952,-323.779449C104.06945,-325.331665,107.032784,-326.07251,110.243057,-326.107788C115.852226,-326.143066,118.74501,-324.132233,119.450562,-319.651947C119.838623,-317.323608,119.238899,-316.970825,115.816963,-317.394165z"/>
    <path transform="matrix(0.970308,0,0,-0.970308,-2.486435,-417.109253)" style="stroke:#000000;stroke-width:0.05mm;fill:none" d="M291.500305,-322.050842C285.503082,-323.673615,280.246674,-326.778046,277.636139,-330.270569C275.272522,-333.445557,274.108337,-338.066956,275.166687,-340.113068C276.295563,-342.194458,279.858643,-342.300293,283.986145,-340.395264C286.949463,-339.054718,289.418915,-336.585266,290.794739,-333.657227C292.135284,-330.834991,292.382233,-329.494446,291.535583,-329.494446C290.230286,-329.494446,287.937256,-330.976105,285.891144,-333.128052C284.726959,-334.327515,282.927795,-335.773895,281.904755,-336.338318C280.211395,-337.220276,279.964478,-337.290833,279.505859,-336.796936C279.011963,-336.30304,279.047241,-336.0914,279.788086,-334.539185C280.846405,-332.31665,284.091949,-328.929993,286.138062,-327.906952C288.960297,-326.460571,297.356415,-325.331665,299.861145,-326.037231C300.355011,-326.178345,300.990021,-326.778046,301.342804,-327.342499C301.977783,-328.506653,303.106689,-329.318054,304.517792,-329.670837C305.258636,-329.847229,305.681976,-329.706116,306.422791,-328.965271C308.257233,-327.130829,306.951965,-324.132233,303.565308,-322.333069C301.519196,-321.239441,295.063354,-321.098328,291.500305,-322.050842z"/>
    <path transform="matrix(0.970308,0,0,-0.970308,-2.486435,-417.109253)" style="stroke:#000000;stroke-width:0.05mm;fill:none" d="M133.914459,-327.236664C133.279449,-327.871674,133.173615,-329.353333,133.702789,-330.764435C133.914459,-331.29361,133.949738,-331.858063,133.773346,-332.034454C133.596954,-332.210846,130.986404,-332.105011,127.776123,-331.787506C122.308067,-331.223053,121.990562,-331.223053,120.720573,-331.858063C118.74501,-332.810547,118.780289,-333.868896,120.89695,-335.985565C123.225288,-338.349182,125.483063,-339.372223,128.481674,-339.372223L130.845291,-339.372223L131.268616,-337.961121C131.656677,-336.655823,131.797791,-336.549988,132.96196,-336.549988C135.466675,-336.549988,138.288895,-337.220276,139.417786,-338.066956C141.393341,-339.548615,143.51001,-339.548615,144.074448,-338.102234C144.780014,-336.232483,137.089447,-326.672241,134.902237,-326.672241C134.655289,-326.672241,134.196671,-326.919159,133.914459,-327.236664z"/>
</svg>
