<?xml version="1.0" encoding="UTF-8" standalone="no"?>
<svg xmlns="http://www.w3.org/2000/svg" xmlns:xlink="http://www.w3.org/1999/xlink" width="315.639mm" height="360.006mm" viewBox="11.834290 -374.102722 315.639343 360.005981">
    <path transform="matrix(1,0,0,-1,-6.662704,33.400253)" style="stroke:#ff0000;stroke-width:0.050000mm;fill:none" d="M125.384003,79.774994L121.083389,82.177994L114.594002,85.804001L103.247002,92.153999L102.713997,92.452774L91.844002,98.545998L80.886002,104.698997L71.350998,110.066002L62.659309,114.945999L61.954002,115.342003L53.041,120.336998L44.960999,124.855003L38.061005,128.70401L37.177994,129.194305L33.331741,131.330002L32.686996,131.688004L29.186005,133.615997L28.985992,133.721771L27.923782,134.2836L27.923233,134.283875L27.921158,134.284973L27.913589,134.288986L27.906006,134.292999L27.854004,134.255005L27.705002,134.169998L27.661804,134.147034L27.470001,134.044998L27.160004,133.882004L26.787003,133.686996L26.358994,133.464996L25.891006,133.220001L25.389999,132.957001L25.315536,132.918747L24.889999,132.700104L24.772995,132.639999L24.268005,132.363998L23.871002,132.126999L23.580002,131.925003L23.391006,131.753998L23.302994,131.613007L23.311005,131.498001L23.412994,131.406006L23.548828,131.330002L31.005005,127.157997L37.177994,123.694275L47.671997,117.806L52.764778,114.945999L70.358002,105.066002L96.010002,90.655998L102.713997,86.888428L111.095703,82.177994L121.570999,76.291L135.481995,68.46936L140.240204,65.794006L143.983994,63.688995L151.865997,59.253555L154.800888,57.602005L160.195999,54.565994L167.151001,50.636993L168.25,49.999481L168.768005,49.699005L168.25,50.277908L166.539993,52.188995L166.020996,52.783997L165.375,53.494003L164.625,54.294006L163.798996,55.156998L162.923004,56.057999L162.020996,56.968994L161.387299,57.602005L161.121994,57.867004L160.248993,58.722L160.057999,58.906952L159.113007,59.822006L158.108994,60.759995L157.201996,61.561996L156.358994,62.253998L155.546005,62.863007L154.729996,63.414993L153.878006,63.938995L152.953003,64.459L151.865997,65.055923L150.521927,65.794006L149.402008,66.408997L143.290009,69.798004L135.481995,74.143845L135.117004,74.347L125.384003,79.774994z"/>
    <path transform="matrix(1,0,0,-1,-6.662704,33.400253)" style="stroke:#ff0000;stroke-width:0.050000mm;fill:none" d="M96.463997,130.053009L96.712074,129.792801L101.333,124.945999L102.713997,123.493774L106.509995,119.501999L110.830612,114.945999L111.833,113.889L117.145004,108.277L122.280998,102.837997L127.082001,97.738998L131.388,93.150002L135.481995,88.788872L135.526001,88.741997L139.850006,84.160004L141.729111,82.177994L144.233002,79.537003L148.544998,75.007004L152.662003,70.703003L156.451996,66.761002L157.387894,65.794006L159.791,63.311005L160.057999,63.037994L162.550003,60.490005L165.399933,57.602005L168.25,54.713852L173.166092,49.732101L173.483948,49.410004L174.302994,48.580002L174.313904,49.410004L174.334152,50.950485L174.339996,51.395004L174.339996,54.210007L168.25,60.711761L165.820999,63.304993L163.705994,65.565994L163.491806,65.794006L160.942993,68.507004L157.649994,72.003006L153.945999,75.931L149.945999,80.169998L148.05011,82.177994L145.768997,84.593994L141.533005,89.083L137.354004,93.512001L135.481995,95.492355L127.040001,104.422997L118.541,113.417999L117.098434,114.945999L111.550995,120.821999L105.764,126.958L102.713997,130.196411L100.875,132.149002L96.578003,136.721008L92.57,140.996002L88.542,145.300003L86.495003,147.498001L86.292915,147.713989L84.535004,149.593002L82.709,151.537003L81.066002,153.279999L79.653,154.774994L78.576805,155.906006L78.514,155.972L78.138,156.365555L77.699997,156.824005L77.255997,157.281998L76.943001,157.548004L76.550003,157.828995L76.084999,158.119995L75.563004,158.414001L74.989998,158.705994L74.379997,158.992004L74.042,159.136856L73.742996,159.264999L73.086998,159.518997L71.756187,160.001999L70.102997,160.602005L70.102997,160.001999L70.102997,159.410004L70.122002,159.117996L70.176003,158.811996L70.263,158.492996L70.383003,158.165009L70.531998,157.830994L70.709999,157.492996L70.916,157.152008L71.146004,156.813004L71.762001,156.110001L71.949829,155.906006L73.121002,154.634003L75.136002,152.475006L77.723999,149.725998L79.625801,147.713989L80.795998,146.475998L84.266998,142.820999L88.053001,138.848999L92.065002,134.653L96.463997,130.053009z"/>
    <path transform="matrix(1,0,0,-1,-6.662704,33.400253)" style="stroke:#ff0000;stroke-width:0.050000mm;fill:none" d="M38.979996,149.061005L37.177994,148.067108L36.537781,147.713989L36.041,147.440002L33.261002,145.912994L30.647003,144.488007L28.173996,143.126999L25.901001,141.863007L24.639084,141.151291L23.884995,140.725998L22.179993,139.748001L21.796265,139.522003L20.841995,138.959991L20.794006,138.930298L19.929001,138.394989L19.494995,138.082001L19.233994,137.833008L19.039001,137.61499L18.906998,137.404999L18.835007,137.184998L18.819,136.932007L18.852997,136.626007L18.936005,136.246002L19.065002,135.772003L19.153,135.466003L19.16687,135.425995L19.255005,135.171997L19.365997,134.899994L19.481995,134.653L19.600006,134.44101L19.716995,134.269989L19.826996,134.145996L19.927002,134.075989L20.078995,134.05899L20.309998,134.084991L20.612,134.152008L20.794006,134.204788L20.973999,134.257004L21.384003,134.394989L21.832001,134.563995L22.309006,134.759003L22.802994,134.977997L23.710907,135.425995L24.175003,135.654999L26.410995,136.81601L28.985992,138.183105L29.354996,138.378998L31.479446,139.522003L32.852997,140.261002L36.751007,142.377991L37.177994,142.611816L40.892998,144.645996L45.125,146.983002L46.436272,147.713989L49.292,149.306L50.609001,150.029999L52.071999,150.833008L53.561996,151.647202L53.633003,151.686005L55.246002,152.563004L56.859001,153.436996L58.426003,154.278992L59.898003,155.065002L61.225998,155.765991L61.494171,155.906006L61.753998,156.041641L63.176003,156.783997L64.650002,157.569L65.714996,158.169006L66.438004,158.630005L66.883003,159.001999L67.119003,159.334L67.212997,159.669998L67.225769,160.001999L67.227997,160.059998L67.199997,160.507996L67.112,160.908997L66.957001,161.270004L66.730003,161.597992L66.422997,161.902008L66.029999,162.186005L65.849998,162.288269L65.545998,162.460999L64.962997,162.731003L64.764,162.821991L64.572998,162.906006L64.394997,162.979004L64.236,163.042999L64.099998,163.093002L63.992996,163.132004L63.919998,163.154999L63.894226,163.161819L63.893089,163.162125L63.889915,163.162964L63.886002,163.164001L63.693001,163.048996L63.166,162.744003L62.339996,162.268997L61.753998,161.932373L61.251999,161.643997L59.940002,160.889008L58.436996,160.022995L56.779999,159.067001L55.008003,158.040009L54.362152,157.672028L53.877632,157.395981L53.561996,157.216156L52.972,156.880005L50.564003,155.520004L47.872002,154.009003L44.984001,152.395996L41.989998,150.729996L38.979996,149.061005z"/>
    <path transform="matrix(1,0,0,-1,-6.662704,33.400253)" style="stroke:#ff0000;stroke-width:0.050000mm;fill:none" d="M177.251007,50.746002L177.236191,49.410004L177.214996,47.496994L179.141708,49.410004L180.306,50.565994L183.505997,53.774002L184.634003,54.923599L187.26207,57.602005L187.787994,58.138L192.858994,63.350998L195.220139,65.794006L198.425995,69.110992L201.018005,71.805832L204.197998,75.112L209.880005,81.050995L210.952194,82.177994L214.077362,85.462898L215.182007,86.624001L218.064102,89.67868L219.807999,91.527L222.533005,94.438004L225.748993,97.862999L229.337997,101.676003L233.18399,105.753998L233.786011,106.391998L237.164001,109.972L241.162994,114.202003L241.867264,114.945999L245.061996,118.320999L248.742004,122.203003L259.265015,133.313995L267.350006,141.873001L272.834381,147.713989L273.317017,148.227997L277.483002,152.729004L280.169006,155.727997L280.316193,155.906006L281.692993,157.570999L282.372986,158.610001L282.528992,159.194L282.509003,159.537994L282.432983,159.783005L282.281006,159.929993L282.029999,159.979004L281.660004,159.929993L281.148987,159.783005L280.81546,159.661758L280.475006,159.537994L279.617981,159.194L279.106018,158.994003L278.84201,158.88559L278.580017,158.778L278.050995,158.550995L277.536987,158.322998L277.052002,158.100998L276.609985,157.889999L276.226013,157.697998L275.916016,157.533997L275.389008,157.115997L274.746002,156.510254L274.404999,156.188995L274.120361,155.906006L273.001007,154.792999L271.216003,152.968994L269.091003,150.759995L266.666016,148.205994L266.554016,148.086945L266.203125,147.713989L263.979004,145.350006L261.070984,142.233002L255.514008,136.264008L253.36145,133.96936L248.606003,128.899994L240.550995,120.356003L235.430618,114.945999L233.786011,113.208359L231.552002,110.848L221.81601,100.595001L211.546005,89.811996L204.253967,82.177994L201.018005,78.790283L200.947998,78.716995L190.225998,67.526993L188.564575,65.794006L184.634003,61.694077L177.287399,54.03096L177.251007,53.992996L177.251007,50.746002z"/>
    <path transform="matrix(1,0,0,-1,-6.662704,33.400253)" style="stroke:#ff0000;stroke-width:0.050000mm;fill:none" d="M190.184006,53.606995L197.261032,57.602005L198.578995,58.345993L201.018005,59.719498L210.695007,65.169006L225.806,73.667007L233.786011,78.15033L240.954971,82.177994L243.186996,83.432007L262.110992,94.056L281.852997,105.129997L299.322021,114.922295L299.364288,114.945999L301.687012,116.248001L328.605377,131.330002L328.932007,131.513L328.693665,131.641129L326.380005,132.88501L325.867004,133.174011L325.384003,133.440002L324.944,133.679001L324.556,133.886993L324.233002,134.056L323.984009,134.18399L323.89801,134.226746L323.820984,134.264999L323.755981,134.292999L323.71698,134.28299L323.656982,134.255005L323.578003,134.209L323.481995,134.14801L323.371002,134.074005L323.246002,133.988007L323.109985,133.891998L322.964996,133.787994L322.95282,133.781036L319.169006,131.621002L318.654358,131.330002L309.328979,126.056999L299.322021,120.41095L295.001007,117.973L289.630005,114.945999L277.73999,108.245003L259.100006,97.749001L240.636993,87.361L233.786011,83.510025L231.41629,82.177994L223.906998,77.957001L210.462997,70.414001L201.018005,65.104233L196.084991,62.330994L191.279205,57.602005L190.766006,57.097L188.735992,55.082001L187.162003,53.485992L186.024994,52.283997L185.307007,51.453995L184.987,50.970001L185.048996,50.809006L185.471008,50.947006L185.489807,50.957123L186.237,51.358994L190.184006,53.606995z"/>
    <path transform="matrix(1,0,0,-1,-6.662704,33.400253)" style="stroke:#ff0000;stroke-width:0.050000mm;fill:none" d="M260.35199,211.992996L259.65863,213.25L251.671997,227.729004L241.731003,245.768997L231.100006,265.075989L223.555786,278.786011L220.350998,284.609985L210.054993,303.333008L205.538712,311.554016L200.783997,320.208984L193.110001,334.196991L187.602997,344.260986L187.569733,344.322021L184.634003,349.704651L183.101761,352.514008L182.433273,353.739685L182.425995,353.752991L180.018997,355.520996L178.54306,356.609985L177.574005,357.325012L177.574005,356.609985L177.574005,355.052002L177.587006,354.442993L177.625,353.880981L177.694,353.351013L177.794998,352.835999L177.880524,352.514008L177.931,352.324005L178.104996,351.798004L178.320999,351.244019L178.580994,350.648987L179.432999,349.049011L181.468994,345.309021L182.009033,344.322021L184.556,339.666992L188.559998,332.369019L193.347,323.656982L198.783997,313.77301L200.005646,311.554016L204.737,302.959991L211.074005,291.462006L218.063171,278.786011L221.276001,272.958984L230.936005,255.421997L240.007004,238.934998L248.445007,223.578003L254.11203,213.25L256.207001,209.432007L263.247009,196.578003L269.519989,185.098999L272.03479,180.481995L274.981018,175.072998L275.862,173.438004L276.482574,172.290009L276.687988,171.910004L277.440002,170.524002L278.098999,169.313004L278.647003,168.30899L278.710175,168.194L279.065002,167.548004L279.334991,167.061005L279.437012,166.880997L279.483002,166.863007L279.583008,166.835999L279.735992,166.800995L279.932007,166.759003L280.165009,166.714005L280.429016,166.662994L280.430664,166.662689L280.714996,166.610001L281.019989,166.557007L282.528992,166.304001L282.528992,168.194L282.528992,171.862L282.29248,172.290009L277.765442,180.481995L260.35199,211.992996z"/>
    <path transform="matrix(1,0,0,-1,-6.662704,33.400253)" style="stroke:#ff0000;stroke-width:0.050000mm;fill:none" d="M326.845001,141.622009L326.04187,142.064026L325.059021,142.605011L322.89502,143.800003L320.431,145.165009L317.744995,146.653992L315.834167,147.713989L314.912994,148.225006L312.015015,149.833008L309.127014,151.434998L308.815674,151.608185L303.569,154.527008L299.322021,156.869568L299.207001,156.932999L295.871002,158.742004L293.388,160.041992L291.588989,160.923004L291.130005,161.119049L290.299011,161.473999L289.348999,161.781998L288.567993,161.936996L288.140991,161.990997L287.772003,162.015991L287.447998,162.009995L287.161987,161.973999L286.898987,161.902008L286.651001,161.794998L286.408997,161.651001L286.158997,161.466995L285.535004,160.899002L285.35199,160.31601L285.564545,160.001999L285.880005,159.535995L287.38501,158.373001L290.140991,156.645996L291.130005,156.072784L291.417786,155.906006L294.412994,154.169998L299.322021,151.408844L300.471985,150.761993L305.940063,147.713989L308.588013,146.238007L313.190979,143.684998L315.705994,142.301575L317.505005,141.311996L320.789032,139.522003L321.432983,139.17099L323.89801,137.8405L324.878998,137.311005L327.748993,135.783997L328.438354,135.425995L329.947998,134.641998L331.380005,133.934998L331.950989,133.714996L332.089996,133.803497L332.23999,133.899002L332.531006,134.214996L332.809021,134.630005L333.059998,135.113998L333.268982,135.63501L333.421997,136.161011L333.502991,136.662994L333.496002,137.108002L333.423004,137.40799L333.257019,137.70401L332.960999,138.024002L332.494019,138.393005L332.089996,138.661133L331.822021,138.838989L330.903992,139.386002L330.662689,139.522003L329.700989,140.063995L328.177002,140.897003L326.845001,141.622009z"/>
    <path transform="matrix(1,0,0,-1,-6.662704,33.400253)" style="stroke:#ff0000;stroke-width:0.050000mm;fill:none" d="M333.389008,156.235001L333.286987,164.731003L333.130005,179.80899L333.123322,180.481995L332.934021,199.541992L332.802765,213.25L332.718994,221.998993L332.502991,245.251007L332.496033,246.018005L332.302002,267.368988L332.202515,278.786011L332.135986,286.423004L332.089996,292.147339L332.065704,295.169983L332.02301,300.484985L332.003998,302.351013L331.988007,303.362L331.97699,304.057983L331.940979,305.569L331.897003,306.850006L331.867065,307.458008L331.846985,307.86499L331.791016,308.57901L331.729004,308.958008L331.664001,308.966003L331.567017,308.563995L331.393982,307.769989L331.328247,307.458008L331.153992,306.630981L330.85498,305.194L330.51001,303.507019L330.480621,303.362L330.127014,301.617004L329.71698,299.570984L329.291992,297.416992L328.84436,295.169983L327.171021,286.769989L327.265747,278.786011L327.458008,262.591003L327.531982,256.916992L327.615997,250.061996L327.66333,246.018005L327.707001,242.283997L327.804016,233.845001L327.903015,225.007996L327.998993,216.031998L328.028229,213.25L328.09198,207.179001L328.177002,198.712006L328.248993,190.582001L328.328003,182.697006L328.352386,180.481995L328.410004,175.25L328.492004,168.436996L328.570007,162.451996L328.641998,157.487L328.703979,153.738007L328.752014,151.399002L328.856049,147.713989L328.966431,143.805176L328.96698,143.785004L330.908997,142.846008L331.309998,142.64801L331.697021,142.466003L332.062988,142.299011L332.089996,142.287415L332.395996,142.156006L332.687012,142.036011L332.924988,141.947998L333.10199,141.890991L333.210022,141.871002L333.294983,142.100006L333.364014,142.781006L333.414001,143.912994L333.447021,145.494003L333.462006,147.518997L333.461548,147.713989L333.460693,148.047836L333.455994,149.985992L333.438354,152.125702L333.432007,152.893005L333.389008,156.235001z"/>
    <path transform="matrix(1,0,0,-1,-6.662704,33.400253)" style="stroke:#ff0000;stroke-width:0.050000mm;fill:none" d="M24.886993,274.860992L24.911469,278.786011L24.994995,292.18399L24.487976,295.169983L23.126007,303.19101L23.097198,303.362L22.75,305.423004L22.384003,307.537994L22.037003,309.488007L21.718994,311.225006L21.656998,311.554016L21.440994,312.700012L21.261993,313.60199L21.210007,313.864014L21.037994,314.667999L20.934006,315.065002L20.863998,314.725006L20.806351,313.60199L20.794006,313.361481L20.792999,313.34201L20.73941,311.554016L20.722,310.972992L20.649994,307.674988L20.580994,303.507996L20.514008,298.529999L20.477646,295.169983L20.451996,292.799011L20.393997,286.373993L20.325775,278.786011L20.233994,268.57901L20.033997,249.050995L19.999786,246.018005L19.806,228.837006L19.615219,213.25L19.563004,208.983994L19.319,190.541L19.084,174.554993L18.876007,162.071991L18.703995,154.141998L18.641998,151.647003L18.591003,149.311996L18.56012,147.713989L18.550003,147.190002L18.520996,145.330994L18.503006,143.790009L18.496994,142.615997L18.505005,141.863998L18.524994,141.583008L18.602005,141.583008L18.774002,141.636993L19.026993,141.737L19.352005,141.880005L19.738007,142.061005L20.171997,142.27301L20.647003,142.511993L20.794006,142.588425L21.149002,142.77301L23.628998,144.144989L23.667725,147.713989L23.880005,167.278992L24.095993,188.270996L24.285004,206.860001L24.348862,213.25L24.447998,223.169998L24.585999,237.322998L24.666336,246.018005L24.697998,249.445007L24.785004,259.660004L24.828613,265.49585L24.848007,268.089996L24.886993,274.860992z"/>
    <path transform="matrix(1,0,0,-1,-6.662704,33.400253)" style="stroke:#ff0000;stroke-width:0.050000mm;fill:none" d="M24.664001,311.848999L24.713135,311.554016L24.891006,310.485992L25.154007,308.893982L25.444,307.117004L25.751999,305.201996L26.046616,303.362L26.074005,303.19101L26.417007,301.141998L26.768005,299.113007L27.113998,297.161011L27.447998,295.338013L27.479675,295.169983L27.757996,293.694L28.033997,292.283997L28.266998,291.161987L28.445999,290.378998L28.794998,289.09201L29.518005,286.524994L30.570007,282.830017L31.726791,278.786011L31.904999,278.162994L33.479996,272.677002L35.248993,266.526001L37.167007,259.86499L37.177994,259.826874L39.192001,252.847L43.242996,238.824997L47.267998,224.884003L50.62468,213.25L51.126999,211.509003L54.679001,199.184998L57.786003,188.399994L60.062355,180.481995L60.305,179.638L62.098,173.386002L63.023003,170.130005L63.741997,167.494995L63.796005,167.494995L67.227997,167.494995L67.227997,169.804993L67.208,170.375L67.152,171.046005L67.058998,171.800995L66.935997,172.619995L66.783997,173.487L66.607002,174.382996L66.405998,175.291L66.185997,176.192001L65.635002,178.209L64.996078,180.481995L64.461998,182.382004L62.740997,188.457001L60.542999,196.175995L57.940002,205.287994L55.660255,213.25L55.005997,215.535004L51.810997,226.660995L48.43,238.410995L40.748001,265.065002L37.177994,277.438385L36.789185,278.786011L35.112,284.598999L32.050293,295.169983L31.195007,298.122986L29.657867,303.362L28.664993,306.746002L27.203903,311.554016L27.195999,311.580017L26.457993,313.734985L26.197632,314.187744L26.121002,314.320984L25.856995,314.450989L25.451996,314.764008L25.100006,314.973999L24.889999,315.049927L24.804001,315.080994L24.567993,315.087006L24.393997,314.992981L24.285004,314.800995L24.244995,314.510986L24.276001,314.126007L24.348007,313.713989L24.367249,313.60199L24.481003,312.940002L24.664001,311.848999z"/>
    <path transform="matrix(1,0,0,-1,-6.662704,33.400253)" style="stroke:#ff0000;stroke-width:0.050000mm;fill:none" d="M70.102997,342.817017L72.744728,344.322021L79.536003,348.190979L92.734001,355.694L102.713997,361.360535L108.237999,364.497009L124.584999,373.77301L135.481995,379.953064L140.315002,382.694L153.968994,390.431L164.084,396.15802L168.25,398.508911L169.199997,399.044983L171.104996,400.091003L171.104996,401.666016L171.104996,403.087006L171.102997,403.679993L171.098007,404.233002L171.091003,404.734985L171.082993,405.169983L171.070999,405.528992L171.059998,405.796997L171.046005,405.960999L171.033005,406.01001L170.882996,405.934998L170.505997,405.720001L169.923996,405.380005L169.162994,404.932007L168.25,404.391785L168.246994,404.390015L167.201996,403.770996L166.048996,403.091003L164.815002,402.36499L160.266998,399.681L158.91362,398.893036L154.587006,396.373993L147.584991,392.335999L139.070007,387.460022L135.481995,385.414551L128.854004,381.635986L116.746002,374.757019L102.713997,366.802002L102.556999,366.713013L86.098999,357.397003L67.332001,346.791016L62.964317,344.322021L53.255997,338.833984L43.198997,333.143982L37.177994,329.729309L36.488007,329.338013L34.033142,327.937988L32.447998,327.033997L30.406998,325.850006L29.692993,325.403992L29.630997,325.313995L29.841995,325.338989L30.397995,325.462006L31.259003,325.674011L32.389999,325.963013L33.753998,326.320984L35.313004,326.734985L37.029999,327.196991L37.177994,327.237091L38.867996,327.695007L48.033997,330.221985L69.945999,342.727417L70.102997,342.817017z"/>
    <path transform="matrix(1,0,0,-1,-6.662704,33.400253)" style="stroke:#ff0000;stroke-width:0.050000mm;fill:none" d="M131.395004,283.29599L128.910965,278.786011L125.457001,272.515015L113.184998,250.247009L102.713997,231.228333L102.448997,230.746994L93.263,214.046005L92.826027,213.25L85.644997,200.169006L79.608002,189.145996L75.168999,181.005997L74.885803,180.481995L72.343002,175.777008L71.146004,173.485992L70.885002,172.919006L70.665001,172.382004L70.632973,172.290009L70.485001,171.865005L70.342003,171.365005L70.235001,170.875L70.160004,170.389999L70.117996,169.903L70.102997,169.406998L70.102997,168.194L70.102997,167.494995L71.325996,167.494995L71.677002,167.507996L71.986,167.548996L72.259003,167.623001L72.507004,167.734009L72.740997,167.888L72.969002,168.089005L73.065285,168.194L73.200996,168.341995L73.446999,168.649002L74.632004,170.662003L75.547615,172.290009L77.646004,176.020996L80.126945,180.481995L82.598999,184.927002L89.602997,197.580002L98.257889,213.25L98.771004,214.179001L102.713997,221.328568L110.212997,234.925995L124.042999,260.018005L134.383133,278.786011L140.373001,289.65799L144.136002,296.484985L147.968002,303.440002L151.764008,310.330017L152.438324,311.554016L155.416,316.958984L158.817993,323.13501L160.143021,325.539337L161.865005,328.664001L164.449997,333.352997L166.468002,337.007019L168.25,340.226135L170.517349,344.322021L174.699005,351.876007L174.699005,352.514008L174.699005,354.401978L174.694,354.916016L174.679993,355.395996L174.656998,355.830994L174.626999,356.210999L174.589996,356.523987L174.574463,356.609985L174.546997,356.761993L174.498993,356.911987L174.447006,356.963989L174.335999,356.927002L174.143997,356.820007L173.880997,356.649994L173.823059,356.609985L173.557999,356.427002L173.184006,356.158997L172.768997,355.852997L172.345993,355.532898L172.324997,355.516998L171.860001,355.160004L171.188004,354.617981L170.612,354.109985L170.108002,353.60498L169.649002,353.072021L169.236603,352.514008L169.210007,352.477997L168.766006,351.794983L168.292007,350.990997L168.25,350.915222L167.761993,350.035004L164.690125,344.322021L164.289001,343.575989L159.964005,335.583008L154.953995,326.360992L149.425995,316.214996L146.879623,311.554016L143.546005,305.451996L137.479996,294.377014L131.395004,283.29599z"/>
    <path transform="matrix(1,0,0,-1,-6.662704,33.400253)" style="stroke:#ff0000;stroke-width:0.050000mm;fill:none" d="M284.470001,327.768005L299.322021,323.646698L315.705994,319.100281L323.89801,316.827057L324.654327,316.617188L324.654999,316.617004L326.416016,317.699005L326.770996,317.916992L327.100006,318.130981L327.399994,318.334991L327.660004,318.524994L327.875,318.692017L327.994019,318.793488L328.037994,318.830994L328.140991,318.934998L328.177002,318.997986L327.994019,319.080444L326.876007,319.583984L326.415192,319.746002L323.363007,320.819L318.181,322.535004L315.705994,323.328461L311.877014,324.556L304.992981,326.713013L300.996307,327.937988L299.322021,328.451172L298.072998,328.833984L291.661011,330.747009L286.303009,332.279999L282.937988,333.20993L279.463989,334.169983L268.864014,337.104004L266.554016,337.743652L255.714996,340.744995L242.796082,344.322021L241.225006,344.757019L233.786011,346.817871L226.606003,348.807007L213.067993,352.559021L201.820007,355.679016L201.018005,355.901733L194.072006,357.830994L191.559998,358.528992L189.179001,359.177979L186.987,359.768005L185.037003,360.279999L184.634003,360.38324L183.386002,360.703003L183.373795,360.705994L182.087997,361.022003L181.199005,361.225006L180.774002,361.294983L180.576004,361.285004L180.363998,361.255981L180.147003,361.210999L179.927994,361.151001L179.716995,361.076996L179.520004,360.990997L179.341995,360.89502L179.192001,360.789978L179.093201,360.705994L179.005005,360.630981L178.921005,360.463013L178.962997,360.259003L179.154999,359.990997L179.524002,359.634003L180.091995,359.160004L180.803085,358.607117L180.882996,358.544983L181.923004,357.757996L183.437088,356.609985L184.634003,355.702484L185.302002,355.195984L201.018005,350.86615L214.774994,347.075989L221.516998,345.213013L224.735229,344.322021L229.390991,343.03302L233.786011,341.816101L238.113007,340.617981L247.399002,338.044983L256.962006,335.393005L266.518982,332.742981L266.554016,332.733307L275.78299,330.174988L282.937988,328.192505L283.856445,327.937988L284.470001,327.768005z"/>
    <path transform="matrix(1,0,0,-1,-6.662704,33.400253)" style="stroke:#ff0000;stroke-width:0.050000mm;fill:none" d="M294.070984,341.731018L289.530182,344.322021L289.234009,344.490997L284.182983,347.372986L284.059814,347.44339L279.070007,350.294983L274.050995,353.164001L269.281006,355.89801L266.554016,357.465485L264.916016,358.406982L260.285004,361.057983L254.748993,364.218018L248.518005,367.772003L241.800003,371.598999L234.804993,375.580994L233.786011,376.160828L232.152985,377.089996L227.740005,379.601013L220.815002,383.539978L218.08815,385.090393L214.237,387.279999L208.050995,390.794983L202.25,394.09198L201.018005,394.792603L196.964005,397.098022L192.320007,399.73999L188.447998,401.945007L185.477005,403.641998L184.634003,404.125305L184.326813,404.301453L183.533997,404.755981L182.75,405.216003L182.600006,405.302979L182.585999,405.309753L182.447006,405.377014L182.298004,405.432983L182.158005,405.473022L182.029999,405.494019L181.921005,405.494995L181.835999,405.475006L181.779007,405.432983L181.727997,405.338013L181.679993,405.143982L181.636993,404.864014L181.600006,404.507019L181.569,404.089996L181.551361,403.713989L181.546997,403.621002L181.533005,403.113007L181.529007,402.580994L181.529007,401.666016L181.529007,399.945984L184.634003,398.220276L184.92955,398.055969L185.229996,397.889008L186.951996,396.910004L190.466003,394.916992L195.557999,392.029999L201.018005,388.936462L202.015991,388.371002L209.200348,384.300171L209.626007,384.059021L218.175003,379.213013L221.920334,377.089996L227.451004,373.955017L233.786011,370.36264L237.23999,368.403992L247.160004,362.778992L249.143311,361.654053L256.80899,357.306L265.950989,352.121002L266.554016,351.7789L274.343018,347.359985L279.69873,344.322021L281.748993,343.158997L282.937988,342.484436L287.927002,339.653992L292.640015,336.981018L295.64801,335.274994L299.322021,333.200684L305.748993,329.571991L310.957336,327.937988L315.524994,326.505005L315.705994,326.44809L317.5,325.884003L319.351013,325.304016L321.037994,324.777008L322.52002,324.317017L323.753998,323.936005L324.699005,323.64801L325.312012,323.463989L325.554016,323.401001L325.404999,323.584991L324.556,324.151001L322.964996,325.123993L320.593018,326.527008L318.168701,327.937988L317.398987,328.385986L313.34198,330.723999L308.676025,333.397003L308.380981,333.56601L302.477997,336.93399L299.322021,338.735016L298.536987,339.182983L294.070984,341.731018z"/>
    <path transform="matrix(1,0,0,-1,-6.662704,33.400253)" style="stroke:#ff0000;stroke-width:0.050000mm;fill:none" d="M301.542999,229.423996L301.116058,227.936493L299.322021,221.68573L296.900818,213.25L287.495911,180.481995L285.404999,173.196991L285.404999,169.695999L285.416992,168.472L285.463989,167.492004L285.550995,166.727997L285.687012,166.158997L285.884003,165.759995L286.147003,165.503998L286.420197,165.395523L286.487,165.369003L286.914001,165.328995L287.299988,165.277008L287.763,165.858002L288.639008,168.18399L290.260986,173.369003L292.361023,180.481995L292.963013,182.520996L297.078003,196.753998L299.322021,204.568787L301.814789,213.25L302.942993,217.179001L310.889008,244.906998L311.206177,246.018005L314.677002,258.174988L317.798004,269.132996L320.333008,278.074005L320.533264,278.786011L322.364014,285.294983L323.971985,291.089996L325.083862,295.169983L325.242981,295.753998L326.257019,299.580994L327.098022,302.865997L327.221985,303.362L327.623993,304.970001L328.140015,307.109009L328.221008,307.458008L328.625,309.197998L329.062012,311.148987L329.14917,311.554016L329.434021,312.877014L329.721985,314.294983L329.90802,315.317993L329.948486,315.649994L329.973999,315.859009L329.951996,316.016998L329.877014,316.109985L329.734985,316.132019L329.515015,316.080017L329.205994,315.946991L328.791016,315.731995L328.648987,315.649994L328.260986,315.425995L327.60199,315.028992L325.804993,313.908997L325.127075,311.554016L323.947998,307.458008L323.89801,307.284271L322.768921,303.362L321.742981,299.798004L320.598999,295.817017L320.413177,295.169983L318.89502,289.884003L316.713013,282.286011L315.707703,278.786011L314.135986,273.313995L311.248993,263.252991L308.130981,252.391998L306.302673,246.018005L304.869019,241.020004L301.542999,229.423996z"/>
    <path transform="matrix(1,0,0,-1,-6.662704,33.400253)" style="stroke:#ff0000;stroke-width:0.050000mm;fill:none" d="M72.440002,163.018997L72.927002,162.800003L73.486,162.550995L74.095001,162.283005L74.736,162.005005L75.389,161.725006L76.033997,161.451996L76.651001,161.194L77.221001,160.962006L78.138,160.596802L79.845001,159.916992L86.330002,159.916992L102.713997,159.916992L168.25,159.916992L233.786011,159.916992L266.554016,159.916992L273.326996,159.916992L274.746002,160.452332L277.820007,161.612L278.84201,162.001602L279.268005,162.164001L280.347992,162.587997L281.095001,162.906006L281.544983,163.136993L281.734009,163.304993L281.696991,163.429993L281.471008,163.531998L281.091003,163.632996L280.665009,163.694L279.925995,163.764999L278.915009,163.843002L278.84201,163.84787L277.671997,163.925995L276.239014,164.011993L274.746002,164.090332L274.656982,164.095001L274.593597,164.097992L272.966003,164.175003L271.207001,164.247009L266.554016,164.29512L260.764008,164.354996L238.747009,164.43399L233.786011,164.442505L208.966003,164.485001L175.238007,164.503998L168.25,164.501312L141.375,164.490997L111.191002,164.445007L102.713997,164.414734L88.498001,164.363998L86.330002,164.341721L78.138,164.257538L77.112,164.247009L71.490334,164.097992L70.282997,164.06601L72.440002,163.018997z"/>
    <path transform="matrix(1,0,0,-1,-6.662704,33.400253)" style="stroke:#ff0000;stroke-width:0.050000mm;fill:none" d="M28.985992,317.216156L37.177994,319.452423L39.085007,319.972992L45.622002,321.759003L56.431,324.725006L69.945999,328.443298L70.431999,328.576996L86.547997,333.014008L102.713997,337.469696L103.702003,337.742004L120.817001,342.460022L127.56517,344.322021L135.481995,346.50647L136.813995,346.873993L150.617004,350.684998L156.382004,352.289001L160.766998,353.539001L164.020996,354.531006L166.391006,355.358002L168.126999,356.119019L168.25,356.190918L168.966934,356.609985L169.475006,356.906982L170.684998,357.817993L172.003998,358.949005L172.345993,359.253082L172.464005,359.358002L172.804001,359.677979L173.028,359.925995L173.149002,360.122009L173.173004,360.283997L173.110001,360.431L172.968994,360.580994L172.814926,360.705994L172.757004,360.752991L172.496002,360.934998L172.242996,361.072998L171.985992,361.169006L171.712006,361.221985L171.408005,361.235992L171.065002,361.210999L170.667999,361.145996L170.205994,361.041992L168.948929,360.705994L168.25,360.519165L162.065002,358.865997L144.623001,354.069L135.481995,351.535217L121.076004,347.541992L109.514328,344.322021L102.713997,342.42807L94.616997,340.173004L69.945999,333.276703L68.441002,332.856018L45.742996,326.481018L37.177994,324.05304L29.716995,321.937988L26.688583,321.042755L23.557007,320.117004L23.399002,319.872009L23.391068,319.746002L23.382004,319.60199L23.501007,319.312988L23.75,319.007019L24.126007,318.692017L24.623001,318.371002L25.238007,318.050995L25.964996,317.734985L27.977997,316.94101L28.985992,317.216156z"/>
    <path transform="matrix(1,0,0,-1,-6.662704,33.400269)" style="stroke:#ff0000;stroke-width:0.050000mm;fill:none" d="M174.987,362.809998L176.028,362.052979L176.442001,362.345093L176.509811,362.392914L177.358994,362.992004L178.688004,363.966003L178.663345,368.89801L178.622375,377.089996L178.580994,385.365997L178.546005,393.062988L178.54303,393.473999L178.505005,398.734985L178.444992,401.666016L178.423996,402.690979L178.270996,405.238007L178.014999,406.684021L177.625,407.337006L177.070007,407.502991L176.442001,407.492188L176.315994,407.48999L176.093002,407.481018L175.860992,407.458008L175.626999,407.421997L175.399002,407.377014L175.184998,407.322021L174.992004,407.260986L174.826996,407.195984L174.699005,407.127991L174.541,406.871002L174.414993,406.212006L174.317001,404.994995L174.240005,403.067993L174.210388,401.666016L174.181,400.274994L174.132996,396.460999L174.108459,393.473999L174.091995,391.471008L174.052002,385.149994L174.011734,377.089996L173.97081,368.89801L173.944183,363.568329L173.944,363.531982L174.987,362.809998z"/>
    <path transform="matrix(1,0,0,-1,287,-371.078491)" style="stroke:#ff0000;stroke-width:0.050000mm;fill:none" d="M-36.677246,-8.554199L-36.310547,-8.508301C-34.800419,-8.281696,-33.630894,-7.069518,-33.458496,-5.552246C-33.358326,-4.820349,-33.541237,-4.077336,-33.969727,-3.475586C-34.337799,-3.004277,-34.862801,-2.680612,-35.449219,-2.563477L-35.105469,-2.380371C-34.286602,-1.898946,-33.845631,-0.965073,-33.994141,-0.026855C-34.121964,0.863662,-34.683727,1.632748,-35.493164,2.025391C-36.533092,2.545753,-37.759342,2.533399,-38.788574,1.992188C-39.54681,1.544732,-40.084343,0.801601,-40.271973,-0.058594L-40.341797,-0.380859L-39.023438,-0.615234L-38.980957,-0.380859C-38.900707,0.138307,-38.634483,0.610711,-38.231934,0.948242C-37.452648,1.529715,-36.362492,1.431106,-35.700195,0.719238C-35.191566,0.079054,-35.192982,-0.825765,-35.703613,-1.464355C-36.085827,-1.831835,-36.577412,-2.064085,-37.104004,-2.125977C-37.310059,-2.159394,-37.519806,-2.163668,-37.727051,-2.138672L-37.873535,-3.295898L-37.606445,-3.231934C-36.980526,-3.053455,-36.308151,-3.143718,-35.751465,-3.480957C-35.097267,-3.91849,-34.748257,-4.689999,-34.851563,-5.470215C-34.899174,-6.054739,-35.179825,-6.595396,-35.629898,-6.971389C-36.079971,-7.347383,-36.661934,-7.527357,-37.245605,-7.470215C-38.032143,-7.407424,-38.702579,-6.873585,-38.939941,-6.121094C-39.033188,-5.876925,-39.105232,-5.625187,-39.155273,-5.368652L-40.473633,-5.544434C-40.368336,-7.052814,-39.231857,-8.287241,-37.737305,-8.516602C-37.386654,-8.570814,-37.030849,-8.583434,-36.677246,-8.554199zM-4.150391,-8.554199C-2.970442,-8.482674,-1.905206,-7.822613,-1.315918,-6.797852C-0.772476,-5.819654,-0.773768,-4.630824,-1.319336,-3.653809C-1.683372,-3.08769,-2.26209,-2.694063,-2.922363,-2.563477L-2.578613,-2.380371C-1.759748,-1.898947,-1.318774,-0.965074,-1.467285,-0.026855C-1.595106,0.863661,-2.15687,1.632748,-2.966309,2.025391C-4.006234,2.545753,-5.232486,2.533399,-6.261719,1.992188C-7.019956,1.544731,-7.557487,0.8016,-7.745117,-0.058594L-7.814941,-0.380859L-6.496582,-0.615234L-6.454102,-0.380859C-6.373854,0.138307,-6.107628,0.610711,-5.705078,0.948242C-4.925796,1.529715,-3.835637,1.431106,-3.17334,0.719238C-2.66471,0.079053,-2.666126,-0.825765,-3.176758,-1.464355C-3.558973,-1.831835,-4.050557,-2.064086,-4.577148,-2.125977C-4.783204,-2.159394,-4.992949,-2.163668,-5.200195,-2.138672L-5.34668,-3.295898L-5.07959,-3.231934C-4.45367,-3.053454,-3.781297,-3.143718,-3.224609,-3.480957C-2.570414,-3.918492,-2.221398,-4.689999,-2.324707,-5.470215C-2.372323,-6.05474,-2.652972,-6.595396,-3.103045,-6.971389C-3.553117,-7.347383,-4.135079,-7.52736,-4.71875,-7.470215C-5.505287,-7.407426,-6.175727,-6.873586,-6.413086,-6.121094C-6.506333,-5.876927,-6.578377,-5.625186,-6.628418,-5.368652L-7.946777,-5.544434C-7.841476,-7.052814,-6.705001,-8.287239,-5.210449,-8.516602C-4.859802,-8.570814,-4.503997,-8.583433,-4.150391,-8.554199zM5.354004,2.402344L4.504395,2.402344L4.302246,2.051758C3.681525,1.189681,2.871637,0.481342,1.93457,-0.019043L1.398926,-0.292969L1.398926,-1.567383C2.364372,-1.196397,3.256747,-0.658494,4.035645,0.021973L4.035645,-8.378906L5.354004,-8.378906L5.354004,2.402344zM-20.006836,-8.552246C-19.653618,-8.531272,-19.306463,-8.450881,-18.97998,-8.314453C-18.271227,-7.982055,-17.709393,-7.401111,-17.400879,-6.681641C-17.085474,-5.958459,-16.898766,-5.185844,-16.849121,-4.398438C-16.735527,-3.195386,-16.779352,-1.982732,-16.979492,-0.791016C-17.125404,-0.010349,-17.450472,0.725694,-17.929199,1.359375C-18.415516,1.946491,-19.116964,2.314277,-19.876465,2.380371C-20.629465,2.486077,-21.395786,2.323027,-22.040527,1.919922C-22.695381,1.440597,-23.174616,0.759652,-23.404785,-0.018555C-23.695629,-1.013262,-23.827787,-2.047618,-23.796387,-3.083496C-23.810461,-3.958919,-23.721304,-4.832951,-23.530762,-5.6875C-23.395298,-6.325093,-23.123629,-6.925897,-22.734375,-7.44873C-22.232559,-8.088135,-21.484049,-8.486064,-20.67334,-8.544434C-20.45174,-8.564886,-20.228853,-8.567499,-20.006836,-8.552246zM-28.230957,-8.554688C-28.002169,-8.541457,-27.77528,-8.505307,-27.553711,-8.446777C-26.670553,-8.209969,-25.9356,-7.597479,-25.543457,-6.771484C-24.983215,-5.649643,-24.95598,-4.33599,-25.469238,-3.191895C-25.935535,-2.212221,-26.876801,-1.544722,-27.955566,-1.428711C-29.121836,-1.302628,-30.258612,-1.85075,-30.88623,-2.841797C-30.904131,-2.080426,-30.80666,-1.320584,-30.597168,-0.588379C-30.441362,-0.101827,-30.177839,0.343275,-29.826172,0.713867C-29.282921,1.292964,-28.439301,1.477179,-27.704102,1.177246C-27.201654,0.962015,-26.830971,0.520421,-26.706055,-0.011719L-26.608887,-0.373535L-25.297852,-0.270996C-25.366514,0.575356,-25.796726,1.35159,-26.478027,1.858398C-27.027374,2.232046,-27.680655,2.422409,-28.344727,2.402344C-29.121788,2.425578,-29.883368,2.181315,-30.501953,1.710449C-31.152502,1.164829,-31.617647,0.431037,-31.833496,-0.390137C-32.147411,-1.574869,-32.264858,-2.803127,-32.181152,-4.025879C-32.15871,-4.77227,-32.027275,-5.511361,-31.791016,-6.219727C-31.29002,-7.729465,-29.815298,-8.696699,-28.230957,-8.554688zM12.615234,-8.541504C13.788486,-8.441872,14.829047,-7.747672,15.371582,-6.702637C15.976151,-5.56541,16.013357,-4.211687,15.472168,-3.042969C14.673428,-1.498657,12.815886,-0.834763,11.219238,-1.522949C10.959581,-1.633893,10.712166,-1.77151,10.480957,-1.933594L11.05957,0.952148L15.344238,0.952148L15.344238,2.211914L10.004883,2.211914L8.964844,-3.303223L10.202637,-3.464355L10.362793,-3.244629C11.20211,-2.282892,12.643311,-2.142151,13.652832,-2.92334C14.135824,-3.341489,14.421693,-3.942982,14.440918,-4.581543C14.520288,-5.283482,14.344543,-5.990618,13.945801,-6.57373C13.305525,-7.477482,12.082968,-7.745261,11.123535,-7.191895C10.60572,-6.850458,10.255796,-6.306606,10.159668,-5.693848L10.114746,-5.449219L8.730469,-5.566406C8.823853,-7.079717,9.977955,-8.314937,11.481445,-8.510742C11.856759,-8.566628,12.237444,-8.576957,12.615234,-8.541504zM-20.518066,-7.464355C-21.056591,-7.378093,-21.531834,-7.064348,-21.822754,-6.603027C-22.069056,-6.201594,-22.227179,-5.752361,-22.286621,-5.285156C-22.50267,-3.81583,-22.497404,-2.32275,-22.270996,-0.85498C-22.198223,-0.359259,-22.024382,0.116233,-21.760254,0.541992C-21.25647,1.297797,-20.255322,1.538081,-19.463379,1.093262C-18.901279,0.749635,-18.511463,0.183371,-18.391113,-0.464355C-18.211216,-1.325404,-18.130133,-2.204056,-18.149414,-3.083496C-18.123909,-3.959817,-18.205082,-4.836137,-18.391113,-5.692871C-18.512209,-6.341239,-18.899837,-6.90922,-19.459473,-7.258301C-19.780365,-7.440788,-20.152153,-7.513155,-20.518066,-7.464355zM18.757324,-4.343262L18.760742,-4.085449C18.743429,-3.522679,18.856911,-2.963627,19.092285,-2.452148C19.553463,-1.696815,20.482538,-1.37269,21.313477,-1.677246C21.669039,-1.839677,21.919498,-2.169952,21.97998,-2.556152C22.037359,-2.808376,22.064407,-3.066553,22.060547,-3.325195L22.060547,-8.378906L23.378906,-8.378906L23.378906,-3.859863C23.355679,-3.363931,23.460619,-2.870345,23.683594,-2.426758C24.148537,-1.679999,25.078049,-1.369546,25.898438,-1.687012C26.3442,-1.876713,26.634249,-2.314381,26.635254,-2.798828C26.658852,-3.024762,26.669609,-3.251844,26.66748,-3.479004L26.66748,-8.378906L27.978516,-8.378906L27.978516,-3.039551C28.00309,-2.481534,27.882454,-1.926645,27.628418,-1.429199C27.304111,-0.890344,26.746729,-0.533626,26.121582,-0.464844C25.359137,-0.319527,24.570137,-0.497888,23.944336,-0.957031C23.643871,-1.189787,23.383606,-1.470174,23.173828,-1.787109L23.040039,-1.48291C22.772337,-0.9925,22.307634,-0.640107,21.763184,-0.514648C21.14805,-0.360095,20.500292,-0.397066,19.906738,-0.620605C19.377163,-0.836507,18.927135,-1.210648,18.618164,-1.691895L18.618164,-0.600586L17.438965,-0.600586L17.438965,-8.378906L18.757324,-8.378906L18.757324,-4.343262zM31.252441,-4.343262L31.255859,-4.085449C31.238546,-3.52268,31.352028,-2.963626,31.587402,-2.452148C32.048584,-1.696817,32.977654,-1.372693,33.808594,-1.677246C34.164158,-1.839677,34.414616,-2.169952,34.475098,-2.556152C34.532475,-2.808378,34.559525,-3.066554,34.555664,-3.325195L34.555664,-8.378906L35.874023,-8.378906L35.874023,-3.859863C35.8508,-3.363932,35.955738,-2.870346,36.178711,-2.426758C36.643654,-1.679999,37.573166,-1.369545,38.393555,-1.687012C38.839314,-1.876715,39.129364,-2.314381,39.130371,-2.798828C39.153969,-3.024759,39.164726,-3.25185,39.162598,-3.479004L39.162598,-8.378906L40.473633,-8.378906L40.473633,-3.039551C40.498207,-2.481534,40.377571,-1.926645,40.123535,-1.429199C39.799229,-0.890344,39.241848,-0.533627,38.616699,-0.464844C37.854256,-0.319525,37.065254,-0.497888,36.439453,-0.957031C36.138988,-1.189787,35.878723,-1.470172,35.668945,-1.787109L35.535156,-1.48291C35.267456,-0.9925,34.80275,-0.640106,34.258301,-0.514648C33.643169,-0.360095,32.995407,-0.397066,32.401855,-0.620605C31.87228,-0.836506,31.422253,-1.210648,31.113281,-1.691895L31.113281,-0.600586L29.934082,-0.600586L29.934082,-8.378906L31.252441,-8.378906L31.252441,-4.343262zM-12.32666,-5.310059C-11.659592,-6.336624,-10.984879,-7.360886,-10.305176,-8.378906L-8.686523,-8.378906L-11.57959,-4.262695L-8.891602,-0.600586L-10.466309,-0.600586C-11.120022,-1.485611,-11.754826,-2.384102,-12.370605,-3.295898L-12.481445,-3.109375C-13.004959,-2.261528,-13.546783,-1.425026,-14.106445,-0.600586L-15.754395,-0.600586L-13.125,-4.335938L-15.966797,-8.378906L-14.370117,-8.378906L-12.32666,-5.310059zM-28.773438,-7.45752C-29.492252,-7.344771,-30.103271,-6.871439,-30.39209,-6.203613C-30.766127,-5.434044,-30.782911,-4.538911,-30.437988,-3.755859C-29.944721,-2.749695,-28.751379,-2.303129,-27.71875,-2.738281C-27.036678,-3.05031,-26.570126,-3.699806,-26.492188,-4.445801C-26.377499,-5.124659,-26.482882,-5.822318,-26.792969,-6.437012C-27.126181,-7.068257,-27.777494,-7.46751,-28.491211,-7.478027L-28.773438,-7.45752z"/>
</svg>
